<svg width="75" height="13" viewBox="0 0 75 13" fill="none" xmlns="http://www.w3.org/2000/svg">
<path d="M6.92188 12H0.5625V0.578125H6.92188V1.75H1.89062V5.44531H6.63281V6.60156H1.89062V10.8281H6.92188V12ZM18.3828 12H16.8516L10.625 2.40625H10.5625C10.5781 2.66146 10.5964 2.95312 10.6172 3.28125C10.638 3.60417 10.6536 3.95052 10.6641 4.32031C10.6797 4.6849 10.6875 5.05729 10.6875 5.4375V12H9.45312V0.578125H10.9766L17.1797 10.1406H17.2344C17.224 9.95833 17.2109 9.70052 17.1953 9.36719C17.1797 9.02865 17.1641 8.66667 17.1484 8.28125C17.138 7.89062 17.1328 7.52865 17.1328 7.19531V0.578125H18.3828V12ZM32.8984 0.578125C33.8359 0.578125 34.6094 0.695312 35.2188 0.929688C35.8333 1.15885 36.2917 1.51042 36.5938 1.98438C36.8958 2.45833 37.0469 3.0625 37.0469 3.79688C37.0469 4.40104 36.9375 4.90625 36.7188 5.3125C36.5 5.71354 36.2135 6.03906 35.8594 6.28906C35.5052 6.53906 35.1276 6.73177 34.7266 6.86719L37.8594 12H36.3125L33.5156 7.23438H31.1406V12H29.8125V0.578125H32.8984ZM32.8203 1.72656H31.1406V6.10938H32.9531C33.8854 6.10938 34.5703 5.91927 35.0078 5.53906C35.4505 5.15885 35.6719 4.59896 35.6719 3.85938C35.6719 3.08333 35.4375 2.53385 34.9688 2.21094C34.5052 1.88802 33.7891 1.72656 32.8203 1.72656ZM48.3281 0.578125V7.96875C48.3281 8.77604 48.1641 9.49479 47.8359 10.125C47.513 10.7552 47.0234 11.2526 46.3672 11.6172C45.7109 11.9766 44.888 12.1562 43.8984 12.1562C42.487 12.1562 41.4115 11.7734 40.6719 11.0078C39.9375 10.2422 39.5703 9.21875 39.5703 7.9375V0.578125H40.9062V7.97656C40.9062 8.94531 41.1615 9.69271 41.6719 10.2188C42.1875 10.7448 42.9557 11.0078 43.9766 11.0078C44.6745 11.0078 45.2448 10.8828 45.6875 10.6328C46.1354 10.3776 46.4661 10.0234 46.6797 9.57031C46.8984 9.11198 47.0078 8.58333 47.0078 7.98438V0.578125H48.3281ZM66.0312 12H59.6719V0.578125H66.0312V1.75H61V5.44531H65.7422V6.60156H61V10.8281H66.0312V12ZM75.0078 8.96094C75.0078 9.63802 74.8385 10.2161 74.5 10.6953C74.1667 11.1693 73.6979 11.5312 73.0938 11.7812C72.4896 12.0312 71.7786 12.1562 70.9609 12.1562C70.5286 12.1562 70.1198 12.1354 69.7344 12.0938C69.349 12.0521 68.9948 11.9922 68.6719 11.9141C68.349 11.8359 68.0651 11.7396 67.8203 11.625V10.3516C68.2109 10.513 68.6875 10.6641 69.25 10.8047C69.8125 10.9401 70.401 11.0078 71.0156 11.0078C71.5885 11.0078 72.0729 10.9323 72.4688 10.7812C72.8646 10.625 73.1641 10.4036 73.3672 10.1172C73.5755 9.82552 73.6797 9.47656 73.6797 9.07031C73.6797 8.67969 73.5938 8.35417 73.4219 8.09375C73.25 7.82812 72.9635 7.58854 72.5625 7.375C72.1667 7.15625 71.625 6.92448 70.9375 6.67969C70.4531 6.50781 70.026 6.32031 69.6562 6.11719C69.2865 5.90885 68.9766 5.67448 68.7266 5.41406C68.4766 5.15365 68.2865 4.85156 68.1562 4.50781C68.0312 4.16406 67.9688 3.77083 67.9688 3.32812C67.9688 2.71875 68.1224 2.19792 68.4297 1.76562C68.7422 1.32812 69.1719 0.994792 69.7188 0.765625C70.2708 0.53125 70.9036 0.414062 71.6172 0.414062C72.2266 0.414062 72.7891 0.471354 73.3047 0.585938C73.8255 0.700521 74.3021 0.854167 74.7344 1.04688L74.3203 2.1875C73.9089 2.01562 73.4714 1.8724 73.0078 1.75781C72.5495 1.64323 72.0755 1.58594 71.5859 1.58594C71.0964 1.58594 70.6823 1.65885 70.3438 1.80469C70.0104 1.94531 69.7552 2.14583 69.5781 2.40625C69.401 2.66667 69.3125 2.97656 69.3125 3.33594C69.3125 3.73698 69.3958 4.07031 69.5625 4.33594C69.7344 4.60156 70.0052 4.83854 70.375 5.04688C70.75 5.25 71.2448 5.46354 71.8594 5.6875C72.5312 5.93229 73.1016 6.19271 73.5703 6.46875C74.0391 6.73958 74.3958 7.07292 74.6406 7.46875C74.8854 7.85938 75.0078 8.35677 75.0078 8.96094Z" fill="#808080"/>
</svg>
