<svg width="255" height="60" viewBox="0 0 255 60" fill="none" xmlns="http://www.w3.org/2000/svg">
<path d="M58.8167 50.9558H0V2.98108H58.8167V50.9558ZM2.80444 48.1769H56.0123V5.76003H2.80444V48.1769Z" fill="#808080"/>
<path d="M114.472 50.9558H55.8338V2.98108H114.472V50.9558ZM58.6382 48.1769H111.668V5.76003H58.6382V48.1769Z" fill="#808080"/>
<path d="M36.5087 27.0315C37.2991 27.2589 38.0129 27.6126 38.6758 28.0421C39.3387 28.4968 39.8996 29.0273 40.384 29.6336C40.8684 30.24 41.2253 30.9221 41.5057 31.68C41.7862 32.4378 41.9136 33.221 41.9136 34.0547C41.9136 35.0652 41.7097 36.0252 41.3273 36.9094C40.9193 37.7936 40.4095 38.5768 39.7211 39.2336C39.0582 39.8905 38.2679 40.421 37.3501 40.8C36.4322 41.1789 35.4634 41.3557 34.4436 41.3557H23.8633H23.7103C22.716 41.3305 21.7727 41.1284 20.8804 40.7494C19.988 40.3705 19.2232 39.8652 18.5603 39.2084C17.8974 38.5515 17.3875 37.7936 16.9796 36.9347C16.5717 36.0757 16.3932 35.141 16.3932 34.1557H19.2742C19.2742 34.7621 19.4016 35.3178 19.6566 35.8484C19.9115 36.3789 20.243 36.8589 20.6509 37.2631C21.0588 37.6673 21.5432 37.9957 22.1041 38.2231C22.665 38.4505 23.2514 38.5768 23.8888 38.5768H34.2907V38.5263C34.3417 38.5263 34.3672 38.5263 34.3927 38.5515C34.4181 38.5768 34.4436 38.5768 34.4946 38.5768C35.132 38.5768 35.7184 38.4505 36.3048 38.2231C36.8657 37.9957 37.3501 37.6673 37.758 37.2378C38.1659 36.8084 38.4973 36.3284 38.7523 35.7978C39.0072 35.2421 39.1347 34.661 39.1347 34.0294C39.1347 33.9789 39.1092 33.9284 39.0837 33.9031V33.8526V33.7768V33.7263V33.6757V33.6V33.5494V33.4989V33.4231C39.0582 33.3979 39.0327 33.3726 39.0327 33.3473C39.0327 33.2463 39.0072 33.1705 38.9817 33.1452V33.0947V33.0442C38.9817 33.0189 38.9817 32.9936 38.9562 32.9936C38.9307 32.9936 38.9307 32.9684 38.9307 32.9431V32.8673L38.8798 32.8168V32.741C38.8798 32.7157 38.8543 32.6905 38.8288 32.6652C38.8288 32.6147 38.8288 32.5894 38.8033 32.5642C38.7778 32.5389 38.7778 32.5136 38.7778 32.4631C38.7523 32.4631 38.7268 32.4378 38.7268 32.4126C38.7268 32.3873 38.7268 32.3621 38.7013 32.3621C38.6758 32.3368 38.6758 32.3115 38.6758 32.261C38.6503 32.261 38.6248 32.2357 38.6248 32.2105V32.16C38.5993 32.1347 38.5738 32.1094 38.5738 32.0842C38.5483 32.0589 38.5228 32.0336 38.5228 32.0084C38.4973 31.9831 38.4718 31.9578 38.4718 31.9326C38.4463 31.8821 38.4208 31.8315 38.3954 31.8063C38.3699 31.7557 38.3444 31.7305 38.3189 31.68L38.2679 31.6294V31.5789L38.1914 31.5031L38.1404 31.4273L38.0894 31.3515L37.9619 31.2252L37.8855 31.1494C37.8855 31.1242 37.86 31.0989 37.8345 31.0736L37.758 30.9978L37.6815 30.9221L37.6305 30.8463C37.605 30.8463 37.5795 30.8463 37.5795 30.821C37.5795 30.7957 37.554 30.7957 37.5285 30.7957C37.503 30.7705 37.4775 30.7452 37.4775 30.72C37.452 30.6947 37.4265 30.6694 37.3756 30.6442L37.3246 30.5936L37.2481 30.5178C37.2226 30.5178 37.1971 30.5178 37.1971 30.4926C37.1971 30.4673 37.1716 30.4673 37.1461 30.4673L37.0696 30.3915L36.9931 30.341C36.9421 30.2905 36.8912 30.24 36.8402 30.2147L36.7637 30.1642C36.7637 30.1389 36.7382 30.1136 36.6872 30.1136V30.0631L36.6107 30.0126C36.5852 30.0126 36.5597 30.0126 36.5597 29.9873C36.5597 29.9621 36.5342 29.9621 36.5087 29.9621C36.4577 29.9115 36.4068 29.8863 36.3558 29.8863C36.2538 29.8357 36.1773 29.8105 36.1518 29.8105C36.1263 29.7852 36.1008 29.76 36.0753 29.76C36.0498 29.7347 36.0243 29.7094 35.9988 29.7094C35.9733 29.6842 35.9478 29.6589 35.9223 29.6589H35.8714C35.8459 29.6336 35.8204 29.6084 35.7949 29.6084C35.7439 29.5831 35.7184 29.5578 35.6929 29.5578C35.6674 29.5578 35.6419 29.5326 35.5909 29.5073C35.5654 29.5073 35.5399 29.5073 35.5144 29.4821C35.4889 29.4568 35.4634 29.4568 35.4379 29.4568H35.3105V29.4063H35.4379C34.9535 29.28 34.1887 29.1031 33.1179 28.8757C32.0471 28.6484 30.8744 28.421 29.6251 28.1936C29.4211 28.1431 29.1917 28.0926 28.9877 28.0673C28.7838 28.0421 28.5543 27.9915 28.3504 27.941C27.9934 27.8905 27.611 27.8147 27.2541 27.7389C26.8972 27.6631 26.5147 27.5873 26.1578 27.5368C26.1323 27.5368 26.1068 27.5368 26.1068 27.5115C26.0813 27.4863 26.0813 27.4863 26.0558 27.4863C25.9538 27.4863 25.8264 27.461 25.6734 27.4105H25.5459H25.4694C25.4439 27.3852 25.393 27.36 25.342 27.36C25.291 27.36 25.24 27.36 25.2145 27.3347C25.189 27.3094 25.138 27.3094 25.087 27.3094C25.036 27.3094 24.985 27.2842 24.9595 27.2589H24.8066C24.5261 27.2084 24.2457 27.1579 24.0162 27.1326C23.7868 27.0821 23.5573 27.0568 23.3534 27.0063C23.1239 26.9557 22.8944 26.9052 22.6905 26.88C22.4865 26.8547 22.3336 26.8294 22.2061 26.8042C22.0531 26.7789 21.9256 26.7536 21.7982 26.7284C21.0078 26.5263 20.294 26.1979 19.6311 25.7431C18.9682 25.2884 18.4073 24.7831 17.9229 24.1515C17.4385 23.5452 17.0816 22.8631 16.8012 22.1052C16.5207 21.3473 16.3932 20.5642 16.3932 19.7052C16.3932 18.72 16.5717 17.7852 16.9541 16.8757C17.3366 15.9915 17.8465 15.2084 18.5093 14.5768C19.1722 13.92 19.937 13.3894 20.8294 13.0105C21.7217 12.6315 22.665 12.4042 23.6848 12.3789H23.8378H34.4181H34.8516C35.7949 12.4294 36.6872 12.6568 37.503 13.0357C38.3189 13.4147 39.0327 13.8947 39.6446 14.501C40.2565 15.1073 40.7664 15.7894 41.1743 16.5979C41.5822 17.4063 41.8117 18.24 41.8882 19.1242H39.0072C38.9307 18.5936 38.7523 18.1136 38.5228 17.6336C38.2679 17.1536 37.9619 16.7494 37.5795 16.3957C37.1971 16.0421 36.7637 15.7642 36.2793 15.5621C35.7949 15.36 35.2595 15.2336 34.7241 15.2084H34.5966H34.4436H34.2397H24.0417H23.8378H23.7103C23.0984 15.2336 22.5375 15.36 22.0021 15.5873C21.4667 15.8147 20.9823 16.1431 20.5999 16.5726C20.192 17.0021 19.8861 17.4568 19.6566 18.0126C19.4271 18.5431 19.2997 19.1242 19.2997 19.7052V19.8315V19.9579V20.0336V20.1094V20.4631V20.5389V20.5894L19.3507 20.64V20.7157V20.7663V20.8421C19.3762 20.8673 19.4016 20.8926 19.4016 20.9179V20.9684V21.0189L19.4526 21.0694V21.1452V21.1957L19.5036 21.2463V21.3221C19.5291 21.3473 19.5546 21.3726 19.5546 21.3979C19.5546 21.4231 19.5546 21.4484 19.5801 21.4484C19.6056 21.4736 19.6056 21.4736 19.6056 21.4989C19.6311 21.5494 19.6566 21.6 19.6566 21.6252C19.6821 21.6757 19.6821 21.701 19.7076 21.7515C19.7076 21.8021 19.7331 21.8526 19.7586 21.8779C19.7586 21.9031 19.7841 21.9284 19.8096 21.9536C19.8096 21.9789 19.8096 22.0042 19.8351 22.0042C19.8606 22.0294 19.8606 22.0294 19.8606 22.0547L19.9115 22.1305C19.937 22.1305 19.9625 22.1557 19.9625 22.2063H19.8861C19.8861 22.2568 19.9115 22.2821 19.937 22.2821V22.3326L19.988 22.3831L20.039 22.4336V22.4842C20.0645 22.5094 20.09 22.5347 20.09 22.56H20.141C20.141 22.6105 20.1665 22.6357 20.192 22.6357L20.2685 22.7115V22.7368L20.3195 22.8126L20.3959 22.8884L20.5489 23.04L20.7019 23.2421C20.7274 23.2421 20.7529 23.2421 20.7529 23.2673C20.7529 23.2926 20.7784 23.2926 20.8039 23.2926L20.8804 23.3684L20.9568 23.4442L21.0333 23.4947C21.0333 23.52 21.0588 23.5452 21.0843 23.5452V23.5957C21.1098 23.5957 21.1353 23.621 21.1608 23.6463L21.2118 23.6968H21.2628C21.2628 23.7221 21.2883 23.7473 21.3138 23.7473L21.3648 23.7978L21.4157 23.8484C21.4412 23.8484 21.4667 23.8736 21.4922 23.8989C21.5177 23.8989 21.5432 23.8989 21.5432 23.9242C21.5432 23.9494 21.5687 23.9494 21.5942 23.9494L22.0786 24.2273C22.1296 24.2273 22.1806 24.2526 22.2316 24.3031C22.2826 24.3031 22.3336 24.3284 22.3591 24.3536H22.4355L22.4865 24.4042H22.563C22.5885 24.4294 22.614 24.4547 22.6395 24.4547H22.6905C22.6905 24.48 22.716 24.5052 22.767 24.5052C22.7925 24.5052 22.818 24.5305 22.8435 24.5557H22.6905H22.767L22.818 24.6063H22.8945C22.9454 24.6063 22.9964 24.6315 23.0219 24.6568H23.0984C23.1494 24.6568 23.2004 24.6821 23.2259 24.7073H23.3534H23.4298H23.4808C23.5063 24.7073 23.6848 24.7326 23.9907 24.7831C24.2967 24.8336 24.7046 24.9094 25.189 24.9852C25.6734 25.061 26.2598 25.1621 26.8972 25.2631C27.56 25.3642 28.2484 25.4905 28.9622 25.6168C29.2172 25.6673 29.4211 25.7179 29.5231 25.7431C30.7979 25.9452 32.0471 26.1978 33.3219 26.4505C34.5456 26.4757 35.6164 26.7536 36.5087 27.0315Z" fill="#808080"/>
<path d="M97.2885 41.4569H94.4331V28.0927H75.4139V41.4569H72.5585V12.6569H75.4139V25.2632H94.4331V12.6569H97.2885V41.4569Z" fill="#808080"/>
<mask id="path-5-inside-1_2_102" fill="white">
<path d="M139.457 12.6063C139.967 12.7578 140.451 12.9599 140.859 13.2378C141.293 13.5157 141.65 13.8442 141.956 14.2484C142.262 14.6273 142.516 15.0568 142.695 15.5368C142.873 16.0168 142.975 16.4968 142.975 17.0273C142.975 17.6589 142.848 18.2652 142.593 18.821C142.338 19.3768 141.981 19.882 141.548 20.2863C141.114 20.7157 140.604 21.0442 140.018 21.2715C139.432 21.4989 138.794 21.6252 138.131 21.6252H131.248H131.146C130.483 21.5999 129.871 21.4736 129.31 21.2463C128.724 21.0189 128.239 20.6905 127.806 20.261C127.372 19.8568 127.041 19.3768 126.786 18.821C126.531 18.2652 126.404 17.6842 126.404 17.0526H128.29C128.29 17.4315 128.367 17.7852 128.545 18.1389C128.698 18.4673 128.928 18.7705 129.183 19.0231C129.438 19.2757 129.769 19.4778 130.126 19.6294C130.483 19.781 130.865 19.8568 131.273 19.8568H138.029V19.8315C138.055 19.8315 138.08 19.8315 138.106 19.8315C138.106 19.8315 138.131 19.8315 138.182 19.8315C138.59 19.8315 138.973 19.7557 139.355 19.6042C139.712 19.4526 140.043 19.2505 140.298 18.9978C140.553 18.7452 140.783 18.4168 140.936 18.0884C141.089 17.7347 141.191 17.381 141.191 16.9768C141.191 16.9515 141.191 16.9263 141.165 16.901V16.9263V16.8757V16.8505V16.8252V16.7747V16.7494V16.7242V16.6736C141.14 16.6484 141.14 16.6484 141.14 16.6231C141.14 16.5473 141.14 16.522 141.114 16.4968V16.4463V16.421C141.114 16.3957 141.114 16.3957 141.089 16.3957C141.089 16.3957 141.063 16.3957 141.063 16.3705V16.3199L141.038 16.2947V16.2442C141.038 16.2189 141.038 16.2189 141.012 16.1936C141.012 16.1684 141.012 16.1431 140.987 16.1431C140.987 16.1431 140.987 16.1178 140.987 16.0926C140.961 16.0926 140.961 16.0926 140.961 16.0673C140.961 16.042 140.961 16.042 140.936 16.042C140.936 16.042 140.91 16.0168 140.91 15.9915C140.885 15.9915 140.885 15.9915 140.885 15.9663V15.941C140.859 15.9157 140.859 15.9157 140.859 15.8905C140.834 15.8652 140.834 15.8652 140.834 15.8399C140.808 15.8147 140.808 15.8147 140.808 15.7894C140.783 15.7642 140.783 15.7389 140.757 15.7136C140.732 15.6884 140.732 15.6631 140.706 15.6378L140.681 15.6126V15.5873L140.63 15.5368L140.604 15.4863L140.579 15.4357L140.502 15.3599L140.451 15.3094C140.451 15.2842 140.451 15.2842 140.426 15.2589L140.375 15.2084L140.324 15.1578L140.298 15.1073C140.273 15.1073 140.273 15.1073 140.273 15.1073C140.273 15.1073 140.273 15.1073 140.247 15.1073C140.222 15.082 140.222 15.082 140.196 15.0568C140.196 15.0315 140.171 15.0315 140.12 15.0063L140.094 14.981L140.043 14.9305C140.018 14.9305 140.018 14.9305 140.018 14.9305C140.018 14.9305 140.018 14.9305 139.992 14.9305L139.941 14.8799L139.89 14.8547C139.865 14.8294 139.814 14.8042 139.789 14.7789L139.738 14.7536C139.738 14.7284 139.712 14.7284 139.687 14.7284V14.7031L139.636 14.6778C139.61 14.6778 139.61 14.6778 139.61 14.6778C139.61 14.6778 139.61 14.6778 139.585 14.6778C139.559 14.6526 139.508 14.6273 139.483 14.6273C139.406 14.602 139.381 14.5768 139.355 14.5768C139.33 14.5515 139.33 14.5515 139.304 14.5515C139.279 14.5263 139.279 14.5263 139.253 14.5263C139.228 14.501 139.228 14.501 139.202 14.501H139.177C139.151 14.4757 139.151 14.4757 139.126 14.4757C139.1 14.4505 139.075 14.4505 139.049 14.4505C139.049 14.4505 139.024 14.4505 138.973 14.4252C138.947 14.4252 138.947 14.4252 138.922 14.4252C138.896 14.4252 138.896 14.4252 138.871 14.4252H138.794V14.3999H138.743C138.437 14.3242 137.927 14.1978 137.239 14.0715C136.551 13.9199 135.786 13.7936 134.97 13.642C134.843 13.6168 134.69 13.5915 134.562 13.5663C134.435 13.541 134.282 13.5157 134.154 13.4905C133.925 13.4652 133.67 13.4147 133.44 13.3642C133.211 13.3136 132.956 13.2631 132.726 13.2378C132.701 13.2378 132.701 13.2378 132.675 13.2378C132.675 13.2378 132.65 13.2378 132.624 13.2378C132.548 13.2378 132.471 13.2126 132.37 13.1873H132.319H132.268C132.242 13.162 132.217 13.162 132.191 13.162C132.166 13.162 132.14 13.162 132.115 13.162C132.089 13.162 132.064 13.162 132.038 13.162C132.013 13.162 131.987 13.162 131.962 13.1368H131.86C131.681 13.1115 131.503 13.0863 131.35 13.061C131.197 13.0357 131.044 13.0105 130.916 12.9852C130.763 12.9599 130.61 12.9347 130.483 12.9094C130.355 12.8842 130.253 12.8842 130.151 12.8589C130.049 12.8336 129.973 12.8336 129.896 12.8084C129.387 12.682 128.902 12.4799 128.494 12.202C128.061 11.9242 127.704 11.5957 127.398 11.1915C127.092 10.8126 126.837 10.3831 126.659 9.9031C126.48 9.4231 126.378 8.91784 126.378 8.38731C126.378 7.75573 126.506 7.17468 126.761 6.59363C127.016 6.03784 127.347 5.55784 127.78 5.12836C128.214 4.72415 128.698 4.39573 129.285 4.1431C129.871 3.89047 130.483 3.76415 131.146 3.73889H131.248H138.131H138.412C139.024 3.76415 139.61 3.91573 140.145 4.1431C140.681 4.37047 141.14 4.69889 141.548 5.07784C141.956 5.45679 142.287 5.88626 142.542 6.39152C142.797 6.89679 142.95 7.42731 143.001 7.9831H141.114C141.063 7.65468 140.961 7.35152 140.783 7.04836C140.63 6.74521 140.426 6.49258 140.171 6.26521C139.916 6.03784 139.636 5.861 139.33 5.73468C139.024 5.60837 138.667 5.53258 138.31 5.50731H138.233H138.131H138.004H131.375H131.248H131.146C130.763 5.53258 130.381 5.60836 130.024 5.75994C129.667 5.91152 129.361 6.11363 129.106 6.36626C128.851 6.61889 128.647 6.92205 128.494 7.27573C128.341 7.60415 128.265 7.9831 128.265 8.36205V8.43784V8.33679V8.38731V8.43784V8.4631V8.51363V8.53889L128.29 8.56415V8.61468V8.63994V8.69047C128.316 8.71573 128.316 8.71573 128.316 8.741V8.79152V8.81679L128.341 8.84205V8.89258V8.91784L128.367 8.9431V8.99363C128.392 9.01889 128.392 9.01889 128.392 9.04415C128.392 9.06942 128.392 9.06942 128.418 9.06942L128.443 9.09468C128.469 9.11994 128.469 9.14521 128.494 9.17047C128.494 9.19573 128.52 9.221 128.545 9.24626C128.545 9.27152 128.545 9.29679 128.571 9.32205C128.571 9.34731 128.571 9.34731 128.596 9.37257C128.596 9.39784 128.596 9.39784 128.622 9.39784V9.4231L128.647 9.47363C128.673 9.47363 128.673 9.49889 128.673 9.52415H128.698C128.698 9.54942 128.698 9.57468 128.724 9.57468V9.59994L128.749 9.62521L128.775 9.65047V9.67573C128.8 9.701 128.8 9.701 128.8 9.72626H128.826C128.826 9.75152 128.826 9.77679 128.851 9.77679L128.902 9.82731V9.85258L128.928 9.9031L128.979 9.95363L129.081 10.0547L129.183 10.181C129.208 10.181 129.208 10.181 129.208 10.181C129.208 10.181 129.208 10.181 129.234 10.181L129.285 10.2315L129.336 10.282L129.387 10.3073C129.387 10.3326 129.387 10.3326 129.412 10.3326V10.3578C129.438 10.3578 129.438 10.3578 129.463 10.3831L129.489 10.4084H129.514C129.514 10.4336 129.514 10.4336 129.54 10.4336L129.565 10.4589L129.591 10.4842C129.616 10.4842 129.616 10.4842 129.642 10.5094C129.667 10.5094 129.667 10.5094 129.667 10.5094C129.667 10.5094 129.667 10.5094 129.693 10.5094L129.998 10.6863C130.024 10.6863 130.075 10.7115 130.1 10.7368C130.126 10.7368 130.151 10.7368 130.177 10.762H130.228L130.253 10.7873H130.304C130.33 10.8126 130.33 10.8126 130.355 10.8126H130.381C130.381 10.8378 130.406 10.8378 130.432 10.8378C130.457 10.8378 130.457 10.8378 130.483 10.8631H130.508H130.559L130.585 10.8884H130.636C130.661 10.8884 130.687 10.8884 130.712 10.9136H130.763C130.789 10.9136 130.814 10.9136 130.84 10.9389H130.916H130.967H130.993C131.018 10.9389 131.12 10.9642 131.324 10.9894C131.528 11.0147 131.783 11.0652 132.115 11.1157C132.42 11.1663 132.803 11.2168 133.236 11.2926C133.67 11.3684 134.103 11.4442 134.562 11.5199C134.741 11.5452 134.843 11.5705 134.919 11.5957C135.735 11.722 136.576 11.8736 137.392 12.0505C138.182 12.2526 138.896 12.4294 139.457 12.6063Z"/>
</mask>
<path d="M139.457 12.6063C139.967 12.7578 140.451 12.9599 140.859 13.2378C141.293 13.5157 141.65 13.8442 141.956 14.2484C142.262 14.6273 142.516 15.0568 142.695 15.5368C142.873 16.0168 142.975 16.4968 142.975 17.0273C142.975 17.6589 142.848 18.2652 142.593 18.821C142.338 19.3768 141.981 19.882 141.548 20.2863C141.114 20.7157 140.604 21.0442 140.018 21.2715C139.432 21.4989 138.794 21.6252 138.131 21.6252H131.248H131.146C130.483 21.5999 129.871 21.4736 129.31 21.2463C128.724 21.0189 128.239 20.6905 127.806 20.261C127.372 19.8568 127.041 19.3768 126.786 18.821C126.531 18.2652 126.404 17.6842 126.404 17.0526H128.29C128.29 17.4315 128.367 17.7852 128.545 18.1389C128.698 18.4673 128.928 18.7705 129.183 19.0231C129.438 19.2757 129.769 19.4778 130.126 19.6294C130.483 19.781 130.865 19.8568 131.273 19.8568H138.029V19.8315C138.055 19.8315 138.08 19.8315 138.106 19.8315C138.106 19.8315 138.131 19.8315 138.182 19.8315C138.59 19.8315 138.973 19.7557 139.355 19.6042C139.712 19.4526 140.043 19.2505 140.298 18.9978C140.553 18.7452 140.783 18.4168 140.936 18.0884C141.089 17.7347 141.191 17.381 141.191 16.9768C141.191 16.9515 141.191 16.9263 141.165 16.901V16.9263V16.8757V16.8505V16.8252V16.7747V16.7494V16.7242V16.6736C141.14 16.6484 141.14 16.6484 141.14 16.6231C141.14 16.5473 141.14 16.522 141.114 16.4968V16.4463V16.421C141.114 16.3957 141.114 16.3957 141.089 16.3957C141.089 16.3957 141.063 16.3957 141.063 16.3705V16.3199L141.038 16.2947V16.2442C141.038 16.2189 141.038 16.2189 141.012 16.1936C141.012 16.1684 141.012 16.1431 140.987 16.1431C140.987 16.1431 140.987 16.1178 140.987 16.0926C140.961 16.0926 140.961 16.0926 140.961 16.0673C140.961 16.042 140.961 16.042 140.936 16.042C140.936 16.042 140.91 16.0168 140.91 15.9915C140.885 15.9915 140.885 15.9915 140.885 15.9663V15.941C140.859 15.9157 140.859 15.9157 140.859 15.8905C140.834 15.8652 140.834 15.8652 140.834 15.8399C140.808 15.8147 140.808 15.8147 140.808 15.7894C140.783 15.7642 140.783 15.7389 140.757 15.7136C140.732 15.6884 140.732 15.6631 140.706 15.6378L140.681 15.6126V15.5873L140.63 15.5368L140.604 15.4863L140.579 15.4357L140.502 15.3599L140.451 15.3094C140.451 15.2842 140.451 15.2842 140.426 15.2589L140.375 15.2084L140.324 15.1578L140.298 15.1073C140.273 15.1073 140.273 15.1073 140.273 15.1073C140.273 15.1073 140.273 15.1073 140.247 15.1073C140.222 15.082 140.222 15.082 140.196 15.0568C140.196 15.0315 140.171 15.0315 140.12 15.0063L140.094 14.981L140.043 14.9305C140.018 14.9305 140.018 14.9305 140.018 14.9305C140.018 14.9305 140.018 14.9305 139.992 14.9305L139.941 14.8799L139.89 14.8547C139.865 14.8294 139.814 14.8042 139.789 14.7789L139.738 14.7536C139.738 14.7284 139.712 14.7284 139.687 14.7284V14.7031L139.636 14.6778C139.61 14.6778 139.61 14.6778 139.61 14.6778C139.61 14.6778 139.61 14.6778 139.585 14.6778C139.559 14.6526 139.508 14.6273 139.483 14.6273C139.406 14.602 139.381 14.5768 139.355 14.5768C139.33 14.5515 139.33 14.5515 139.304 14.5515C139.279 14.5263 139.279 14.5263 139.253 14.5263C139.228 14.501 139.228 14.501 139.202 14.501H139.177C139.151 14.4757 139.151 14.4757 139.126 14.4757C139.1 14.4505 139.075 14.4505 139.049 14.4505C139.049 14.4505 139.024 14.4505 138.973 14.4252C138.947 14.4252 138.947 14.4252 138.922 14.4252C138.896 14.4252 138.896 14.4252 138.871 14.4252H138.794V14.3999H138.743C138.437 14.3242 137.927 14.1978 137.239 14.0715C136.551 13.9199 135.786 13.7936 134.97 13.642C134.843 13.6168 134.69 13.5915 134.562 13.5663C134.435 13.541 134.282 13.5157 134.154 13.4905C133.925 13.4652 133.67 13.4147 133.44 13.3642C133.211 13.3136 132.956 13.2631 132.726 13.2378C132.701 13.2378 132.701 13.2378 132.675 13.2378C132.675 13.2378 132.65 13.2378 132.624 13.2378C132.548 13.2378 132.471 13.2126 132.37 13.1873H132.319H132.268C132.242 13.162 132.217 13.162 132.191 13.162C132.166 13.162 132.14 13.162 132.115 13.162C132.089 13.162 132.064 13.162 132.038 13.162C132.013 13.162 131.987 13.162 131.962 13.1368H131.86C131.681 13.1115 131.503 13.0863 131.35 13.061C131.197 13.0357 131.044 13.0105 130.916 12.9852C130.763 12.9599 130.61 12.9347 130.483 12.9094C130.355 12.8842 130.253 12.8842 130.151 12.8589C130.049 12.8336 129.973 12.8336 129.896 12.8084C129.387 12.682 128.902 12.4799 128.494 12.202C128.061 11.9242 127.704 11.5957 127.398 11.1915C127.092 10.8126 126.837 10.3831 126.659 9.9031C126.48 9.4231 126.378 8.91784 126.378 8.38731C126.378 7.75573 126.506 7.17468 126.761 6.59363C127.016 6.03784 127.347 5.55784 127.78 5.12836C128.214 4.72415 128.698 4.39573 129.285 4.1431C129.871 3.89047 130.483 3.76415 131.146 3.73889H131.248H138.131H138.412C139.024 3.76415 139.61 3.91573 140.145 4.1431C140.681 4.37047 141.14 4.69889 141.548 5.07784C141.956 5.45679 142.287 5.88626 142.542 6.39152C142.797 6.89679 142.95 7.42731 143.001 7.9831H141.114C141.063 7.65468 140.961 7.35152 140.783 7.04836C140.63 6.74521 140.426 6.49258 140.171 6.26521C139.916 6.03784 139.636 5.861 139.33 5.73468C139.024 5.60837 138.667 5.53258 138.31 5.50731H138.233H138.131H138.004H131.375H131.248H131.146C130.763 5.53258 130.381 5.60836 130.024 5.75994C129.667 5.91152 129.361 6.11363 129.106 6.36626C128.851 6.61889 128.647 6.92205 128.494 7.27573C128.341 7.60415 128.265 7.9831 128.265 8.36205V8.43784V8.33679V8.38731V8.43784V8.4631V8.51363V8.53889L128.29 8.56415V8.61468V8.63994V8.69047C128.316 8.71573 128.316 8.71573 128.316 8.741V8.79152V8.81679L128.341 8.84205V8.89258V8.91784L128.367 8.9431V8.99363C128.392 9.01889 128.392 9.01889 128.392 9.04415C128.392 9.06942 128.392 9.06942 128.418 9.06942L128.443 9.09468C128.469 9.11994 128.469 9.14521 128.494 9.17047C128.494 9.19573 128.52 9.221 128.545 9.24626C128.545 9.27152 128.545 9.29679 128.571 9.32205C128.571 9.34731 128.571 9.34731 128.596 9.37257C128.596 9.39784 128.596 9.39784 128.622 9.39784V9.4231L128.647 9.47363C128.673 9.47363 128.673 9.49889 128.673 9.52415H128.698C128.698 9.54942 128.698 9.57468 128.724 9.57468V9.59994L128.749 9.62521L128.775 9.65047V9.67573C128.8 9.701 128.8 9.701 128.8 9.72626H128.826C128.826 9.75152 128.826 9.77679 128.851 9.77679L128.902 9.82731V9.85258L128.928 9.9031L128.979 9.95363L129.081 10.0547L129.183 10.181C129.208 10.181 129.208 10.181 129.208 10.181C129.208 10.181 129.208 10.181 129.234 10.181L129.285 10.2315L129.336 10.282L129.387 10.3073C129.387 10.3326 129.387 10.3326 129.412 10.3326V10.3578C129.438 10.3578 129.438 10.3578 129.463 10.3831L129.489 10.4084H129.514C129.514 10.4336 129.514 10.4336 129.54 10.4336L129.565 10.4589L129.591 10.4842C129.616 10.4842 129.616 10.4842 129.642 10.5094C129.667 10.5094 129.667 10.5094 129.667 10.5094C129.667 10.5094 129.667 10.5094 129.693 10.5094L129.998 10.6863C130.024 10.6863 130.075 10.7115 130.1 10.7368C130.126 10.7368 130.151 10.7368 130.177 10.762H130.228L130.253 10.7873H130.304C130.33 10.8126 130.33 10.8126 130.355 10.8126H130.381C130.381 10.8378 130.406 10.8378 130.432 10.8378C130.457 10.8378 130.457 10.8378 130.483 10.8631H130.508H130.559L130.585 10.8884H130.636C130.661 10.8884 130.687 10.8884 130.712 10.9136H130.763C130.789 10.9136 130.814 10.9136 130.84 10.9389H130.916H130.967H130.993C131.018 10.9389 131.12 10.9642 131.324 10.9894C131.528 11.0147 131.783 11.0652 132.115 11.1157C132.42 11.1663 132.803 11.2168 133.236 11.2926C133.67 11.3684 134.103 11.4442 134.562 11.5199C134.741 11.5452 134.843 11.5705 134.919 11.5957C135.735 11.722 136.576 11.8736 137.392 12.0505C138.182 12.2526 138.896 12.4294 139.457 12.6063Z" fill="#808080" stroke="#808080" stroke-width="10" mask="url(#path-5-inside-1_2_102)"/>
<mask id="path-6-inside-2_2_102" fill="white">
<path d="M161.587 13.5157H153.683V21.6757H151.771V3.58728H163.422C164.111 3.63781 164.748 3.78939 165.36 4.09254C165.972 4.37044 166.507 4.74939 166.941 5.20412C167.374 5.65886 167.731 6.16412 168.011 6.74517C168.266 7.32623 168.419 7.93254 168.419 8.56412C168.419 9.1957 168.292 9.77675 168.062 10.3578C167.833 10.9389 167.476 11.4189 167.068 11.8736C166.635 12.3031 166.15 12.682 165.564 12.9852C164.977 13.2883 164.366 13.4652 163.703 13.5662H161.587V13.5157ZM163.371 11.7725C163.805 11.722 164.213 11.5957 164.595 11.4189C164.977 11.2168 165.309 10.9894 165.589 10.7115C165.87 10.4336 166.074 10.1052 166.252 9.72623C166.431 9.34728 166.507 8.96833 166.507 8.53886C166.507 8.10938 166.431 7.70517 166.252 7.32623C166.074 6.94728 165.844 6.61886 165.538 6.3157C165.232 6.03781 164.876 5.78517 164.468 5.6336C164.06 5.45675 163.626 5.3557 163.167 5.33044H153.709V11.7725H163.371Z"/>
</mask>
<path d="M161.587 13.5157H153.683V21.6757H151.771V3.58728H163.422C164.111 3.63781 164.748 3.78939 165.36 4.09254C165.972 4.37044 166.507 4.74939 166.941 5.20412C167.374 5.65886 167.731 6.16412 168.011 6.74517C168.266 7.32623 168.419 7.93254 168.419 8.56412C168.419 9.1957 168.292 9.77675 168.062 10.3578C167.833 10.9389 167.476 11.4189 167.068 11.8736C166.635 12.3031 166.15 12.682 165.564 12.9852C164.977 13.2883 164.366 13.4652 163.703 13.5662H161.587V13.5157ZM163.371 11.7725C163.805 11.722 164.213 11.5957 164.595 11.4189C164.977 11.2168 165.309 10.9894 165.589 10.7115C165.87 10.4336 166.074 10.1052 166.252 9.72623C166.431 9.34728 166.507 8.96833 166.507 8.53886C166.507 8.10938 166.431 7.70517 166.252 7.32623C166.074 6.94728 165.844 6.61886 165.538 6.3157C165.232 6.03781 164.876 5.78517 164.468 5.6336C164.06 5.45675 163.626 5.3557 163.167 5.33044H153.709V11.7725H163.371Z" fill="#808080"/>
<path d="M161.587 13.5157H166.587V8.5157H161.587V13.5157ZM153.683 13.5157V8.5157H148.683V13.5157H153.683ZM153.683 21.6757V26.6757H158.683V21.6757H153.683ZM151.771 21.6757H146.771V26.6757H151.771V21.6757ZM151.771 3.58728V-1.41272H146.771V3.58728H151.771ZM163.422 3.58728L163.788 -1.3993L163.606 -1.41272H163.422V3.58728ZM165.36 4.09254L163.14 8.5728L163.216 8.61019L163.292 8.64503L165.36 4.09254ZM168.011 6.74517L172.59 4.7362L172.554 4.65333L172.514 4.57183L168.011 6.74517ZM167.068 11.8736L170.587 15.4252L170.692 15.3218L170.79 15.2123L167.068 11.8736ZM163.703 13.5662V18.5662H164.082L164.456 18.5091L163.703 13.5662ZM161.587 13.5662H156.587V18.5662H161.587V13.5662ZM164.595 11.4189L166.694 15.9571L166.814 15.9015L166.931 15.8395L164.595 11.4189ZM165.538 6.3157L169.058 2.76406L168.981 2.68762L168.9 2.61461L165.538 6.3157ZM164.468 5.6336L162.479 10.2211L162.601 10.2741L162.726 10.3205L164.468 5.6336ZM163.167 5.33044L163.442 0.337997L163.305 0.330438H163.167V5.33044ZM153.709 5.33044V0.330438H148.709V5.33044H153.709ZM153.709 11.7725H148.709V16.7725H153.709V11.7725ZM161.587 8.5157H153.683V18.5157H161.587V8.5157ZM148.683 13.5157V21.6757H158.683V13.5157H148.683ZM153.683 16.6757H151.771V26.6757H153.683V16.6757ZM156.771 21.6757V3.58728H146.771V21.6757H156.771ZM151.771 8.58728H163.422V-1.41272H151.771V8.58728ZM163.056 8.57387C163.103 8.57726 163.135 8.58137 163.155 8.58453C163.175 8.58765 163.184 8.58995 163.184 8.59003C163.184 8.59006 163.178 8.58857 163.169 8.58497C163.159 8.58134 163.149 8.57706 163.14 8.5728L167.58 -0.387708C166.29 -1.02662 165.002 -1.3102 163.788 -1.3993L163.056 8.57387ZM163.292 8.64503C163.347 8.67001 163.349 8.68306 163.321 8.65378L170.56 1.75447C169.665 0.815713 168.596 0.0708711 167.427 -0.459938L163.292 8.64503ZM163.321 8.65378C163.413 8.74971 163.465 8.82824 163.508 8.91852L172.514 4.57183C171.997 3.50001 171.335 2.56801 170.56 1.75447L163.321 8.65378ZM163.433 8.75415C163.451 8.79649 163.448 8.79795 163.44 8.76229C163.431 8.72422 163.419 8.65542 163.419 8.56412H173.419C173.419 7.10796 173.064 5.81624 172.59 4.7362L163.433 8.75415ZM163.419 8.56412C163.419 8.5531 163.42 8.53857 163.422 8.52196C163.423 8.50539 163.426 8.49116 163.428 8.48062C163.43 8.47025 163.431 8.4671 163.429 8.47243C163.428 8.47802 163.423 8.49387 163.412 8.52134L172.713 12.1943C173.139 11.1144 173.419 9.91063 173.419 8.56412H163.419ZM163.412 8.52134C163.431 8.47258 163.45 8.43306 163.466 8.40409C163.481 8.37557 163.491 8.36043 163.492 8.35988C163.492 8.35977 163.483 8.37359 163.459 8.40334C163.435 8.43347 163.399 8.47607 163.346 8.53485L170.79 15.2123C171.385 14.5494 172.174 13.5584 172.713 12.1943L163.412 8.52134ZM163.549 8.32195C163.472 8.39816 163.415 8.44547 163.375 8.47587C163.335 8.50518 163.302 8.52601 163.268 8.54364L167.86 17.4267C168.978 16.8487 169.865 16.141 170.587 15.4252L163.549 8.32195ZM163.268 8.54364C163.256 8.54949 163.237 8.55879 163.197 8.57095C163.154 8.58395 163.077 8.60378 162.949 8.62333L164.456 18.5091C165.539 18.3441 166.694 18.0294 167.86 17.4267L163.268 8.54364ZM163.703 8.56623H161.587V18.5662H163.703V8.56623ZM166.587 13.5662V13.5157H156.587V13.5662H166.587ZM163.95 16.7389C164.984 16.6184 165.904 16.3225 166.694 15.9571L162.496 6.88059C162.522 6.86895 162.625 6.82564 162.792 6.80618L163.95 16.7389ZM166.931 15.8395C167.626 15.4725 168.392 14.9733 169.109 14.2631L162.07 7.15985C162.226 7.00549 162.329 6.96096 162.259 6.99823L166.931 15.8395ZM169.109 14.2631C169.943 13.436 170.448 12.5521 170.776 11.8565L161.729 7.59591C161.699 7.65823 161.796 7.43124 162.07 7.15985L169.109 14.2631ZM170.776 11.8565C171.301 10.7418 171.507 9.62398 171.507 8.53886H161.507C161.507 8.45269 161.515 8.30398 161.555 8.1164C161.595 7.92486 161.657 7.7474 161.729 7.59591L170.776 11.8565ZM171.507 8.53886C171.507 7.49988 171.318 6.34728 170.776 5.19591L161.729 9.45654C161.543 9.06306 161.507 8.71889 161.507 8.53886H171.507ZM170.776 5.19591C170.352 4.29614 169.785 3.48484 169.058 2.76406L162.019 9.86734C161.972 9.82048 161.914 9.75469 161.856 9.67222C161.798 9.58987 161.756 9.51419 161.729 9.45654L170.776 5.19591ZM168.9 2.61461C168.303 2.07172 167.408 1.39205 166.209 0.946718L162.726 10.3205C162.527 10.2466 162.386 10.165 162.302 10.1105C162.22 10.0566 162.179 10.0187 162.177 10.0168L168.9 2.61461ZM166.456 1.04613C165.487 0.626029 164.472 0.394669 163.442 0.337997L162.893 10.3229C162.781 10.3167 162.632 10.2875 162.479 10.2211L166.456 1.04613ZM163.167 0.330438H153.709V10.3304H163.167V0.330438ZM148.709 5.33044V11.7725H158.709V5.33044H148.709ZM153.709 16.7725H163.371V6.77254H153.709V16.7725Z" fill="#808080" mask="url(#path-6-inside-2_2_102)"/>
<mask id="path-8-inside-3_2_102" fill="white">
<path d="M199.37 21.701H197.305L193.634 14.88H183.104L179.433 21.701H177.368L187.235 3.30945H187.26H187.872H188.356H188.841H189.427H189.453L199.37 21.701ZM184.048 13.061H192.665L188.382 5.05261H188.356L184.048 13.061Z"/>
</mask>
<path d="M199.37 21.701H197.305L193.634 14.88H183.104L179.433 21.701H177.368L187.235 3.30945H187.26H187.872H188.356H188.841H189.427H189.453L199.37 21.701ZM184.048 13.061H192.665L188.382 5.05261H188.356L184.048 13.061Z" fill="#808080"/>
<path d="M199.37 21.701V26.701H207.747L203.771 19.3279L199.37 21.701ZM197.305 21.701L192.902 24.0707L194.318 26.701H197.305V21.701ZM193.634 14.88L198.037 12.5103L196.621 9.87997H193.634V14.88ZM183.104 14.88V9.87997H180.117L178.702 12.5103L183.104 14.88ZM179.433 21.701V26.701H182.42L183.836 24.0707L179.433 21.701ZM177.368 21.701L172.962 19.3373L169.012 26.701H177.368V21.701ZM187.235 3.30945V-1.69055H184.243L182.829 0.945756L187.235 3.30945ZM189.453 3.30945L193.853 0.936286L192.437 -1.69055H189.453V3.30945ZM184.048 13.061L179.644 10.6921L175.68 18.061H184.048V13.061ZM192.665 13.061V18.061H201.009L197.074 10.703L192.665 13.061ZM188.382 5.05261L192.791 2.69453L191.378 0.0526059H188.382V5.05261ZM188.356 5.05261V0.0526059H185.369L183.953 2.68364L188.356 5.05261ZM199.37 16.701H197.305V26.701H199.37V16.701ZM201.708 19.3313L198.037 12.5103L189.231 17.2497L192.902 24.0707L201.708 19.3313ZM193.634 9.87997H183.104V19.88H193.634V9.87997ZM178.702 12.5103L175.03 19.3313L183.836 24.0707L187.507 17.2497L178.702 12.5103ZM179.433 16.701H177.368V26.701H179.433V16.701ZM181.774 24.0647L191.641 5.67314L182.829 0.945756L172.962 19.3373L181.774 24.0647ZM187.235 8.30945H187.26V-1.69055H187.235V8.30945ZM187.26 8.30945H187.872V-1.69055H187.26V8.30945ZM187.872 8.30945H188.356V-1.69055H187.872V8.30945ZM188.356 8.30945H188.841V-1.69055H188.356V8.30945ZM188.841 8.30945H189.427V-1.69055H188.841V8.30945ZM189.427 8.30945H189.453V-1.69055H189.427V8.30945ZM185.052 5.68261L194.969 24.0742L203.771 19.3279L193.853 0.936286L185.052 5.68261ZM184.048 18.061H192.665V8.06103H184.048V18.061ZM197.074 10.703L192.791 2.69453L183.973 7.41068L188.256 15.4191L197.074 10.703ZM188.382 0.0526059H188.356V10.0526H188.382V0.0526059ZM183.953 2.68364L179.644 10.6921L188.451 15.43L192.759 7.42157L183.953 2.68364Z" fill="#808080" mask="url(#path-8-inside-3_2_102)"/>
<mask id="path-10-inside-4_2_102" fill="white">
<path d="M211.276 19.8316H214.081V21.6253H206.815V19.8316H209.619V5.35582H206.815V3.56213H214.081V5.35582H211.276V19.8316Z"/>
</mask>
<path d="M211.276 19.8316H214.081V21.6253H206.815V19.8316H209.619V5.35582H206.815V3.56213H214.081V5.35582H211.276V19.8316Z" fill="#808080"/>
<path d="M211.276 19.8316H206.276V24.8316H211.276V19.8316ZM214.081 19.8316H219.081V14.8316H214.081V19.8316ZM214.081 21.6253V26.6253H219.081V21.6253H214.081ZM206.815 21.6253H201.815V26.6253H206.815V21.6253ZM206.815 19.8316V14.8316H201.815V19.8316H206.815ZM209.619 19.8316V24.8316H214.619V19.8316H209.619ZM209.619 5.35582H214.619V0.355818H209.619V5.35582ZM206.815 5.35582H201.815V10.3558H206.815V5.35582ZM206.815 3.56213V-1.43787H201.815V3.56213H206.815ZM214.081 3.56213H219.081V-1.43787H214.081V3.56213ZM214.081 5.35582V10.3558H219.081V5.35582H214.081ZM211.276 5.35582V0.355818H206.276V5.35582H211.276ZM211.276 24.8316H214.081V14.8316H211.276V24.8316ZM209.081 19.8316V21.6253H219.081V19.8316H209.081ZM214.081 16.6253H206.815V26.6253H214.081V16.6253ZM211.815 21.6253V19.8316H201.815V21.6253H211.815ZM206.815 24.8316H209.619V14.8316H206.815V24.8316ZM214.619 19.8316V5.35582H204.619V19.8316H214.619ZM209.619 0.355818H206.815V10.3558H209.619V0.355818ZM211.815 5.35582V3.56213H201.815V5.35582H211.815ZM206.815 8.56213H214.081V-1.43787H206.815V8.56213ZM209.081 3.56213V5.35582H219.081V3.56213H209.081ZM214.081 0.355818H211.276V10.3558H214.081V0.355818ZM206.276 5.35582V19.8316H216.276V5.35582H206.276Z" fill="#808080" mask="url(#path-10-inside-4_2_102)"/>
<mask id="path-12-inside-5_2_102" fill="white">
<path d="M241.335 21.7263H239.474H239.448L224.661 6.16423V21.7263H222.825V3.53687H224.687L239.499 19.099V3.56213H241.36V21.7263H241.335Z"/>
</mask>
<path d="M241.335 21.7263H239.474H239.448L224.661 6.16423V21.7263H222.825V3.53687H224.687L239.499 19.099V3.56213H241.36V21.7263H241.335Z" fill="#808080"/>
<path d="M239.448 21.7263L235.823 25.1705L237.302 26.7263H239.448V21.7263ZM224.661 6.16423L228.286 2.72012L219.661 -6.3566V6.16423H224.661ZM224.661 21.7263V26.7263H229.661V21.7263H224.661ZM222.825 21.7263H217.825V26.7263H222.825V21.7263ZM222.825 3.53687V-1.46313H217.825V3.53687H222.825ZM224.687 3.53687L228.308 0.0896297L226.83 -1.46313H224.687V3.53687ZM239.499 19.099L235.877 22.5462L244.499 31.6042V19.099H239.499ZM239.499 3.56213V-1.43787H234.499V3.56213H239.499ZM241.36 3.56213H246.36V-1.43787H241.36V3.56213ZM241.36 21.7263V26.7263H246.36V21.7263H241.36ZM241.335 16.7263H239.474V26.7263H241.335V16.7263ZM239.474 16.7263H239.448V26.7263H239.474V16.7263ZM243.073 18.2822L228.286 2.72012L221.036 9.60835L235.823 25.1705L243.073 18.2822ZM219.661 6.16423V21.7263H229.661V6.16423H219.661ZM224.661 16.7263H222.825V26.7263H224.661V16.7263ZM227.825 21.7263V3.53687H217.825V21.7263H227.825ZM222.825 8.53687H224.687V-1.46313H222.825V8.53687ZM221.065 6.9841L235.877 22.5462L243.121 15.6517L228.308 0.0896297L221.065 6.9841ZM244.499 19.099V3.56213H234.499V19.099H244.499ZM239.499 8.56213H241.36V-1.43787H239.499V8.56213ZM236.36 3.56213V21.7263H246.36V3.56213H236.36ZM241.36 16.7263H241.335V26.7263H241.36V16.7263Z" fill="#808080" mask="url(#path-12-inside-5_2_102)"/>
<path d="M142.44 50.779H140.579V42.3411H128.239V50.779H126.378V32.5895H128.239V40.5474H140.604V32.5895H142.465V50.779H142.44Z" fill="#808080"/>
<path d="M161.383 32.6147C162.708 32.6147 163.932 32.8421 165.105 33.3221C166.278 33.8021 167.298 34.459 168.139 35.2674C169.006 36.0758 169.694 37.0358 170.204 38.1474C170.714 39.2337 170.969 40.4211 170.969 41.6842C170.969 42.9474 170.714 44.1095 170.204 45.2211C169.694 46.3074 169.006 47.2674 168.139 48.1011C167.272 48.9095 166.252 49.5663 165.105 50.0463C163.932 50.5263 162.708 50.7537 161.383 50.7537C160.057 50.7537 158.833 50.5263 157.66 50.0463C156.513 49.5663 155.493 48.9095 154.627 48.1011C153.76 47.2926 153.071 46.3326 152.561 45.2211C152.052 44.1347 151.797 42.9474 151.797 41.6842C151.797 40.4211 152.052 39.259 152.561 38.1474C153.071 37.0611 153.76 36.1011 154.627 35.2674C155.493 34.459 156.513 33.8021 157.66 33.3221C158.833 32.8421 160.082 32.6147 161.383 32.6147ZM161.383 49.0611C162.453 49.0611 163.473 48.859 164.417 48.48C165.36 48.1011 166.201 47.5705 166.89 46.8884C167.603 46.2316 168.139 45.4484 168.572 44.539C168.98 43.6295 169.184 42.6695 169.184 41.659C169.184 40.6484 168.98 39.6884 168.572 38.779C168.164 37.8947 167.603 37.1116 166.89 36.4295C166.176 35.7726 165.36 35.2421 164.417 34.8379C163.473 34.459 162.453 34.2569 161.383 34.2569C160.312 34.2569 159.292 34.459 158.349 34.8379C157.405 35.2168 156.59 35.7474 155.876 36.4295C155.162 37.0863 154.627 37.8695 154.193 38.779C153.785 39.6632 153.581 40.6232 153.581 41.659C153.581 42.6695 153.785 43.6547 154.193 44.539C154.601 45.4484 155.162 46.2316 155.876 46.8884C156.59 47.5453 157.405 48.0758 158.349 48.48C159.292 48.859 160.312 49.0611 161.383 49.0611Z" fill="#808080"/>
<path d="M196.591 32.6147V42.9474C196.591 44.0084 196.362 45.019 195.928 45.979C195.495 46.939 194.908 47.7474 194.144 48.4547C193.379 49.1621 192.512 49.7179 191.492 50.1221C190.472 50.5263 189.402 50.7284 188.254 50.7284C187.082 50.7284 186.011 50.5263 184.991 50.1221C183.971 49.7179 183.104 49.1621 182.34 48.4547C181.575 47.7474 180.988 46.9137 180.555 45.979C180.121 45.019 179.892 44.0084 179.892 42.9474V32.6147H181.728V42.3663C181.753 42.4674 181.753 42.5684 181.753 42.6695C181.753 42.7705 181.753 42.8716 181.753 42.9726C181.779 43.8063 181.957 44.5895 182.289 45.3474C182.62 46.08 183.079 46.7116 183.665 47.2674C184.252 47.8232 184.94 48.2526 185.705 48.5558C186.495 48.8842 187.337 49.0358 188.229 49.0358C189.121 49.0358 189.962 48.8842 190.753 48.5558C191.543 48.2274 192.232 47.7979 192.843 47.2674C193.455 46.7369 193.889 46.08 194.246 45.3474C194.577 44.6147 194.756 43.8316 194.756 42.9726V42.5432V42.3663V32.6147H196.591Z" fill="#808080"/>
<path d="M218.619 41.659C219.129 41.8106 219.613 42.0127 220.021 42.2906C220.454 42.5685 220.811 42.8969 221.117 43.3011C221.423 43.68 221.678 44.1095 221.857 44.5895C222.035 45.0695 222.137 45.5495 222.137 46.08C222.137 46.7116 222.01 47.3179 221.755 47.8737C221.5 48.4295 221.143 48.9348 220.709 49.339C220.276 49.7685 219.766 50.0969 219.18 50.3243C218.593 50.5516 217.956 50.6779 217.293 50.6779H210.409H210.307C209.645 50.6527 209.033 50.5264 208.472 50.299C207.885 50.0716 207.401 49.7432 206.968 49.3137C206.534 48.9095 206.203 48.4295 205.948 47.8737C205.693 47.3179 205.565 46.7369 205.565 46.1053H207.452C207.452 46.4843 207.528 46.8379 207.707 47.1916C207.86 47.52 208.089 47.8232 208.344 48.0758C208.599 48.3285 208.931 48.5306 209.288 48.6821C209.645 48.8337 210.027 48.9095 210.435 48.9095H217.191V48.8843C217.217 48.8843 217.242 48.8843 217.268 48.8843C217.268 48.8843 217.293 48.8843 217.344 48.8843C217.752 48.8843 218.134 48.8085 218.517 48.6569C218.874 48.5053 219.205 48.3032 219.46 48.0506C219.715 47.7979 219.944 47.4695 220.097 47.1411C220.25 46.7874 220.352 46.4337 220.352 46.0295C220.352 46.0042 220.352 45.979 220.327 45.9537V45.979V45.9285V45.9032V45.8779V45.8274V45.8021V45.7769V45.7264C220.301 45.7011 220.301 45.7011 220.301 45.6758C220.301 45.6 220.301 45.5748 220.276 45.5495V45.499V45.4737C220.276 45.4485 220.276 45.4485 220.25 45.4485C220.25 45.4485 220.225 45.4485 220.225 45.4232V45.3727L220.199 45.3474V45.2969C220.199 45.2716 220.199 45.2716 220.174 45.2464C220.174 45.2211 220.174 45.1958 220.148 45.1958C220.148 45.1958 220.148 45.1706 220.148 45.1453C220.123 45.1453 220.123 45.1453 220.123 45.12C220.123 45.0948 220.123 45.0948 220.097 45.0948C220.097 45.0948 220.072 45.0695 220.072 45.0443C220.046 45.0443 220.046 45.0442 220.046 45.019V44.9937C220.021 44.9685 220.021 44.9685 220.021 44.9432C219.995 44.9179 219.995 44.9179 219.995 44.8927C219.97 44.8674 219.97 44.8674 219.97 44.8421C219.944 44.8169 219.944 44.7916 219.919 44.7664C219.893 44.7411 219.893 44.7158 219.868 44.6906L219.842 44.6653V44.64L219.792 44.5895L219.766 44.539L219.741 44.4885L219.664 44.4127L219.613 44.3621C219.613 44.3369 219.613 44.3369 219.588 44.3116L219.511 44.2106L219.46 44.16L219.435 44.1095C219.409 44.1095 219.409 44.1095 219.409 44.1095C219.409 44.1095 219.409 44.1095 219.384 44.1095C219.358 44.0843 219.358 44.0842 219.333 44.059C219.333 44.0337 219.307 44.0337 219.256 44.0085V43.9579L219.205 43.9074C219.18 43.9074 219.18 43.9074 219.18 43.9074C219.18 43.9074 219.18 43.9074 219.154 43.9074L219.103 43.8569L219.052 43.8316C219.027 43.8064 218.976 43.7811 218.95 43.7558L218.899 43.7306C218.899 43.7053 218.874 43.7053 218.848 43.7053V43.68L218.797 43.6548C218.772 43.6548 218.772 43.6548 218.772 43.6548C218.772 43.6548 218.772 43.6548 218.746 43.6548C218.721 43.6295 218.67 43.6043 218.644 43.6043C218.568 43.579 218.542 43.5537 218.517 43.5537C218.491 43.5285 218.491 43.5285 218.466 43.5285C218.44 43.5032 218.44 43.5032 218.415 43.5032C218.389 43.4779 218.389 43.4779 218.364 43.4779H218.338C218.313 43.4527 218.313 43.4527 218.287 43.4527C218.262 43.4274 218.236 43.4274 218.211 43.4274C218.211 43.4274 218.185 43.4274 218.134 43.4021C218.109 43.4021 218.109 43.4021 218.083 43.4021C218.058 43.4021 218.058 43.4021 218.032 43.4021H217.981V43.3769H217.93C217.624 43.3011 217.115 43.1748 216.426 43.0485C215.738 42.8969 214.973 42.7706 214.157 42.619C214.03 42.5937 213.877 42.5685 213.749 42.5432C213.622 42.5179 213.469 42.4927 213.341 42.4674C213.112 42.4421 212.857 42.3916 212.627 42.3411C212.398 42.2906 212.143 42.24 211.914 42.2148C211.888 42.2148 211.888 42.2148 211.863 42.2148C211.863 42.2148 211.837 42.2148 211.812 42.2148C211.735 42.2148 211.659 42.1895 211.557 42.1642H211.48H211.429C211.404 42.139 211.378 42.139 211.353 42.139C211.327 42.139 211.302 42.139 211.276 42.139C211.251 42.139 211.225 42.139 211.2 42.139C211.174 42.139 211.149 42.139 211.123 42.1137H211.021C210.843 42.0885 210.664 42.0632 210.511 42.0379C210.358 42.0127 210.205 41.9874 210.078 41.9621C209.925 41.9369 209.772 41.9116 209.645 41.8864C209.517 41.8611 209.415 41.8611 209.313 41.8358C209.211 41.8106 209.135 41.8106 209.058 41.7853C208.548 41.659 208.064 41.4569 207.656 41.179C207.223 40.9011 206.866 40.5727 206.56 40.1685C206.254 39.7895 205.999 39.36 205.82 38.88C205.642 38.4 205.54 37.8948 205.54 37.3642C205.54 36.7327 205.667 36.1516 205.922 35.5706C206.177 35.0148 206.509 34.5348 206.942 34.1053C207.376 33.7011 207.86 33.3727 208.446 33.12C209.033 32.8674 209.645 32.7411 210.307 32.7158H210.409H217.293H217.573C218.185 32.7411 218.772 32.8927 219.307 33.12C219.843 33.3474 220.301 33.6758 220.709 34.0548C221.117 34.4337 221.449 34.8632 221.704 35.3685C221.959 35.8737 222.112 36.4042 222.163 36.96H220.276C220.225 36.6316 220.123 36.3285 219.944 36.0253C219.792 35.7221 219.588 35.4695 219.333 35.2421C219.078 35.0148 218.797 34.8379 218.491 34.7116C218.185 34.5853 217.828 34.5095 217.471 34.4842H217.395H217.293H217.166H210.537H210.409H210.307C209.925 34.5095 209.543 34.5853 209.186 34.7369C208.829 34.8885 208.523 35.0906 208.268 35.3432C208.013 35.5958 207.809 35.899 207.656 36.2527C207.503 36.5811 207.426 36.96 207.426 37.339V37.4148V37.4906V37.5411V37.5916V37.6169V37.6674V37.6927L207.452 37.7179V37.7685V37.7937V37.8442C207.477 37.8695 207.477 37.8695 207.477 37.8948V37.9453V37.9706L207.503 37.9958V38.0464V38.0716L207.528 38.0969V38.1474C207.554 38.1727 207.554 38.1727 207.554 38.1979C207.554 38.2232 207.554 38.2232 207.579 38.2232L207.605 38.2485C207.63 38.2737 207.63 38.299 207.656 38.3242C207.656 38.3495 207.681 38.3748 207.707 38.4C207.707 38.4253 207.707 38.4506 207.732 38.4758C207.732 38.5011 207.732 38.5011 207.758 38.5264C207.758 38.5516 207.758 38.5516 207.783 38.5516V38.5769L207.809 38.6274C207.834 38.6274 207.834 38.6527 207.834 38.6779H207.86C207.86 38.7032 207.86 38.7285 207.885 38.7285V38.7537L207.911 38.779L207.936 38.8042V38.8295C207.962 38.8548 207.962 38.8548 207.962 38.88H207.987C207.987 38.9053 207.987 38.9306 208.013 38.9306L208.064 38.9811V39.0063L208.089 39.0569L208.14 39.1074L208.242 39.2085L208.344 39.3348C208.37 39.3348 208.37 39.3348 208.37 39.3348C208.37 39.3348 208.37 39.3348 208.395 39.3348L208.446 39.3853L208.497 39.4358L208.548 39.4611C208.548 39.4864 208.548 39.4864 208.574 39.4864V39.5116C208.599 39.5116 208.599 39.5116 208.625 39.5369L208.65 39.5621H208.676C208.676 39.5874 208.676 39.5874 208.701 39.5874L208.727 39.6127L208.752 39.6379C208.778 39.6379 208.778 39.6379 208.803 39.6632C208.829 39.6632 208.829 39.6632 208.829 39.6632C208.829 39.6632 208.829 39.6632 208.854 39.6632L209.16 39.84C209.186 39.84 209.237 39.8653 209.262 39.8906C209.288 39.8906 209.313 39.8906 209.339 39.9158H209.39L209.415 39.9411H209.466C209.492 39.9664 209.492 39.9664 209.517 39.9664H209.543C209.543 39.9916 209.568 39.9916 209.594 39.9916C209.619 39.9916 209.619 39.9916 209.645 40.0169H209.67H209.721L209.747 40.0421H209.798C209.823 40.0421 209.849 40.0421 209.874 40.0674H209.925C209.951 40.0674 209.976 40.0674 210.001 40.0927H210.078H210.129H210.154C210.18 40.0927 210.282 40.1179 210.486 40.1432C210.69 40.1685 210.945 40.219 211.276 40.2695C211.582 40.32 211.965 40.3706 212.398 40.4464C212.831 40.5221 213.265 40.5979 213.724 40.6737C213.902 40.699 214.004 40.7242 214.081 40.7495C214.896 40.8758 215.738 41.0274 216.554 41.2042C217.344 41.3053 218.032 41.4821 218.619 41.659Z" fill="#808080"/>
<path d="M245.541 50.779H230.907V32.6147H245.541V34.3832H232.743V40.5726H245.541V42.3411H232.743V49.0105H245.541V50.779Z" fill="#808080"/>
<path d="M243.604 26.8042H126.327V28.0674H243.604V26.8042Z" fill="#808080"/>
</svg>
