<svg width="110" height="92" viewBox="0 0 110 92" fill="none" xmlns="http://www.w3.org/2000/svg">
<g clip-path="url(#clip0_2_53)">
<path d="M50.8419 34.1882H4.29158V0H50.8419V34.1882ZM6.13963 32.3632H48.9938V1.82499H6.13963V32.3632Z" fill="white"/>
<path d="M95.2361 34.1882H48.8501V0H95.2361V34.1882ZM50.6981 32.3632H93.3881V1.82499H50.6981V32.3632Z" fill="white"/>
<path d="M31.8891 17.2765C32.4641 17.4387 32.9774 17.6821 33.4497 18.0065C33.922 18.331 34.3326 18.696 34.6612 19.1421C35.0103 19.5882 35.2772 20.0748 35.462 20.6021C35.6673 21.1293 35.77 21.6971 35.77 22.3054C35.77 23.0354 35.6263 23.7248 35.3388 24.3534C35.0513 24.982 34.6817 25.5498 34.1889 26.0162C33.6961 26.4826 33.1417 26.8679 32.4846 27.1315C31.8275 27.3951 31.1294 27.537 30.3901 27.537H22.7926H22.6694C21.9507 27.5168 21.2731 27.3748 20.6365 27.1112C20 26.8476 19.4456 26.4623 18.9733 25.9959C18.501 25.5295 18.1314 24.982 17.8439 24.3737C17.5565 23.7654 17.4127 23.0962 17.4127 22.3865H19.4866C19.4866 22.8123 19.5688 23.2179 19.7536 23.6032C19.9384 23.9884 20.1643 24.3129 20.4723 24.6171C20.7597 24.9009 21.1088 25.1443 21.499 25.3065C21.8891 25.4687 22.3203 25.5498 22.7721 25.5498H30.2464V25.5295C30.2875 25.5295 30.308 25.5295 30.308 25.5498C30.308 25.5498 30.3491 25.5701 30.3696 25.5701C30.8213 25.5701 31.2526 25.489 31.6632 25.3268C32.0739 25.1646 32.423 24.9212 32.7105 24.6171C32.9979 24.3129 33.2443 23.9682 33.4292 23.5829C33.614 23.1976 33.6961 22.7718 33.6961 22.3257C33.6961 22.2851 33.6961 22.2648 33.6756 22.2446V22.1837V22.1026V22.0823V22.0621V22.0012V21.9809V21.9607V21.8998C33.655 21.8796 33.655 21.8593 33.655 21.839C33.655 21.7579 33.655 21.7173 33.6345 21.6971V21.6362V21.6159C33.6345 21.5957 33.6345 21.5957 33.614 21.5957C33.614 21.5957 33.5934 21.5957 33.5934 21.5754V21.4943L33.5729 21.474V21.4132C33.5729 21.3929 33.5729 21.3726 33.5524 21.3523C33.5524 21.3118 33.5524 21.2915 33.5318 21.2915C33.5318 21.2915 33.5113 21.2509 33.5113 21.2307C33.4908 21.2307 33.4908 21.2307 33.4908 21.2104C33.4908 21.1901 33.4908 21.1698 33.4702 21.1698C33.4702 21.1698 33.4497 21.1293 33.4497 21.109C33.4292 21.109 33.4292 21.109 33.4292 21.0887V21.0685C33.4086 21.0482 33.4086 21.0279 33.4086 21.0076C33.3881 20.9873 33.3881 20.9671 33.3881 20.9468C33.3676 20.9265 33.3676 20.9062 33.3676 20.886C33.347 20.8454 33.3265 20.8251 33.3059 20.7846C33.2854 20.7643 33.2649 20.7237 33.2443 20.6832L33.2238 20.6629V20.6426L33.1622 20.5818L33.1417 20.521L33.1211 20.4601L33.039 20.379L32.9774 20.3182C32.9774 20.2979 32.9774 20.2776 32.9569 20.2573L32.8953 20.1965L32.8337 20.1357L32.8131 20.0748C32.7926 20.0748 32.7926 20.0748 32.7926 20.0546C32.7926 20.0546 32.7926 20.0343 32.7721 20.0343C32.7515 20.014 32.731 19.9937 32.731 19.9735C32.731 19.9532 32.6899 19.9329 32.6694 19.9126L32.6489 19.8923L32.5873 19.8315C32.5667 19.8315 32.5667 19.8315 32.5667 19.8112C32.5667 19.8112 32.5667 19.791 32.5462 19.791L32.4846 19.7301L32.423 19.7098C32.3819 19.6693 32.3409 19.649 32.2998 19.6287L32.2382 19.6085C32.2382 19.5882 32.2177 19.5882 32.1766 19.5882V19.5679L32.115 19.5476C32.0944 19.5476 32.0945 19.5476 32.0945 19.5273C32.0945 19.5273 32.0945 19.5071 32.0739 19.5071C32.0328 19.4665 31.9918 19.4462 31.9507 19.4462C31.8686 19.4057 31.8275 19.3854 31.807 19.3854C31.7864 19.3651 31.7659 19.3651 31.7454 19.3651C31.7248 19.3448 31.7043 19.3448 31.6838 19.3448C31.6632 19.3246 31.6427 19.3246 31.6222 19.3246H31.6016C31.5811 19.3043 31.5606 19.3043 31.54 19.3043C31.499 19.284 31.4784 19.284 31.4784 19.284C31.4784 19.284 31.4374 19.284 31.4168 19.2637C31.3963 19.2637 31.3758 19.2637 31.3552 19.2435C31.3347 19.2435 31.3142 19.2232 31.2936 19.2232H31.2115V19.2029H31.1499C30.8008 19.1015 30.2464 18.9798 29.4866 18.8176C28.7269 18.6554 27.885 18.4932 26.9815 18.331C26.8378 18.2904 26.6735 18.2701 26.5298 18.2498C26.386 18.2296 26.2218 18.2093 26.078 18.1687C25.8111 18.1282 25.5441 18.0876 25.2772 18.0268C25.0103 17.966 24.7433 17.9254 24.4764 17.8848C24.4558 17.8848 24.4353 17.8848 24.4353 17.8646C24.4353 17.8646 24.4148 17.8443 24.3942 17.8443C24.3121 17.8443 24.23 17.824 24.1068 17.7835H24.0246H23.963C23.9425 17.7632 23.922 17.7632 23.8809 17.7632C23.8398 17.7632 23.8193 17.7632 23.7988 17.7429C23.7782 17.7429 23.7577 17.7226 23.7166 17.7226C23.6756 17.7226 23.655 17.7226 23.6345 17.7024H23.5113C23.306 17.6618 23.1211 17.6415 22.9363 17.601C22.7721 17.5807 22.6078 17.5401 22.4641 17.4996C22.2998 17.459 22.1355 17.4387 21.9918 17.4185C21.848 17.3982 21.7248 17.3779 21.6427 17.3576C21.5195 17.3373 21.4374 17.3171 21.3552 17.2968C20.7803 17.1549 20.2669 16.9115 19.7947 16.5871C19.3224 16.2626 18.9117 15.8976 18.5832 15.4515C18.2341 15.0054 17.9671 14.5187 17.7823 13.9712C17.577 13.4238 17.4743 12.856 17.4743 12.2679C17.4743 11.5582 17.6181 10.889 17.885 10.2401C18.1519 9.61154 18.5421 9.04376 19.0144 8.57738C19.4866 8.11099 20.0411 7.74599 20.6776 7.4621C21.3142 7.17821 21.9918 7.03627 22.731 7.01599H22.8542H30.4517H30.7597C31.4374 7.05655 32.0739 7.19849 32.6694 7.48238C33.2649 7.74599 33.7782 8.11099 34.2094 8.53682C34.6612 8.96265 35.0103 9.4696 35.2977 10.0374C35.5852 10.6051 35.7495 11.2135 35.8111 11.8421H33.7372C33.6756 11.4771 33.5524 11.1121 33.3881 10.7674C33.2033 10.4226 32.9774 10.1388 32.7105 9.87515C32.4435 9.63182 32.115 9.42904 31.7659 9.26682C31.4168 9.12487 31.0472 9.02349 30.6365 9.02349H30.5544H30.4312H30.2875H22.9569H22.8131H22.6899C22.2587 9.04376 21.848 9.14515 21.4579 9.30737C21.0678 9.4696 20.7392 9.71293 20.4517 10.0171C20.1643 10.3213 19.9384 10.666 19.7741 11.031C19.6099 11.4163 19.5277 11.8218 19.5277 12.2476V12.3288V12.4099V12.4707V12.5315V12.5721V12.6329V12.6532L19.5482 12.6735V12.7343V12.7749V12.8357C19.5688 12.856 19.5688 12.8763 19.5688 12.8965V12.9574V12.9776L19.5893 12.9979V13.0588V13.079L19.6099 13.0993V13.1601C19.6304 13.1804 19.6304 13.2007 19.6304 13.221C19.6304 13.2413 19.6304 13.2615 19.6509 13.2615C19.6509 13.2615 19.6715 13.2818 19.6715 13.3021C19.692 13.3426 19.7125 13.3629 19.7125 13.4035C19.7125 13.4238 19.7331 13.4643 19.7536 13.5049C19.7536 13.5454 19.7536 13.5657 19.7741 13.586C19.7741 13.6063 19.7741 13.6265 19.7947 13.6468C19.7947 13.6671 19.7947 13.6874 19.8152 13.6874C19.8152 13.6874 19.8357 13.7076 19.8357 13.7279L19.8563 13.7887C19.8768 13.7887 19.8768 13.809 19.8768 13.8496H19.8973C19.8973 13.8901 19.8973 13.9104 19.9179 13.9104V13.9307L19.9384 13.951L19.9589 13.9712V13.9915C19.9795 14.0118 19.9795 14.0321 19.9795 14.0524H20C20 14.0929 20 14.1132 20.0205 14.1132L20.0821 14.174V14.1943L20.1027 14.2551L20.1643 14.316L20.2875 14.4376L20.4107 14.5796C20.4312 14.5796 20.4312 14.5796 20.4312 14.5999C20.4312 14.5999 20.4312 14.6201 20.4517 14.6201L20.5133 14.681L20.5749 14.7418L20.6365 14.7621C20.6365 14.7824 20.6365 14.7824 20.6571 14.7824V14.8026C20.6776 14.8026 20.6981 14.8026 20.7187 14.8229L20.7392 14.8432H20.7597C20.7597 14.8635 20.7597 14.8635 20.7803 14.8635L20.8008 14.8837L20.8214 14.904C20.8419 14.904 20.8624 14.904 20.883 14.9243C20.9035 14.9243 20.9035 14.9243 20.9035 14.9446C20.9035 14.9446 20.9035 14.9649 20.924 14.9649L21.2731 15.1676C21.3142 15.1676 21.3552 15.1879 21.3963 15.2285C21.4374 15.2285 21.4579 15.2285 21.4784 15.2487H21.54L21.5606 15.269H21.6222C21.6427 15.2893 21.6632 15.2893 21.6838 15.2893H21.7043C21.7043 15.3096 21.7248 15.3096 21.7659 15.3096C21.7864 15.3096 21.807 15.3096 21.8275 15.3299H21.848H21.9096L21.9302 15.3501H21.9918C22.0328 15.3501 22.0534 15.3501 22.0739 15.3704H22.1355C22.1766 15.3704 22.1971 15.3704 22.2177 15.3907H22.2998H22.3614H22.3819C22.4025 15.3907 22.5257 15.411 22.7515 15.4515C22.9774 15.4921 23.2649 15.5326 23.614 15.5935C23.963 15.6543 24.3737 15.7151 24.846 15.7962C25.3183 15.8774 25.8111 15.9585 26.3244 16.0396C26.5092 16.0801 26.653 16.1004 26.7146 16.1207C27.6181 16.2626 28.5216 16.4451 29.4456 16.6276C30.4723 16.8912 31.2526 17.0737 31.8891 17.2765Z" fill="white"/>
<path d="M31.8891 17.2765C32.4641 17.4387 32.9774 17.6821 33.4497 18.0065C33.922 18.331 34.3326 18.696 34.6612 19.1421C35.0103 19.5882 35.2772 20.0748 35.462 20.6021C35.6673 21.1293 35.77 21.6971 35.77 22.3054C35.77 23.0354 35.6263 23.7248 35.3388 24.3534C35.0513 24.9821 34.6817 25.5498 34.1889 26.0162C33.6961 26.4826 33.1417 26.8679 32.4846 27.1315C31.8275 27.3951 31.1294 27.537 30.3901 27.537H22.7926H22.6694C21.9507 27.5168 21.2731 27.3748 20.6365 27.1112C20 26.8476 19.4456 26.4623 18.9733 25.9959C18.501 25.5295 18.1314 24.9821 17.8439 24.3737C17.5565 23.7654 17.4127 23.0962 17.4127 22.3865H19.4866C19.4866 22.8123 19.5688 23.2179 19.7536 23.6032C19.9384 23.9884 20.1643 24.3129 20.4723 24.6171C20.7597 24.9009 21.1088 25.1443 21.499 25.3065C21.8891 25.4687 22.3203 25.5498 22.7721 25.5498H30.2464V25.5295C30.2875 25.5295 30.308 25.5295 30.308 25.5498C30.308 25.5498 30.3491 25.5701 30.3696 25.5701C30.8213 25.5701 31.2526 25.489 31.6632 25.3268C32.0739 25.1646 32.423 24.9212 32.7105 24.6171C32.9979 24.3129 33.2443 23.9682 33.4292 23.5829C33.614 23.1976 33.6961 22.7718 33.6961 22.3257C33.6961 22.2851 33.6961 22.2648 33.6756 22.2446V22.1837V22.1026V22.0823V22.0621V22.0012V21.9809V21.9607V21.8998C33.655 21.8796 33.655 21.8593 33.655 21.839C33.655 21.7579 33.655 21.7173 33.6345 21.6971V21.6362V21.6159C33.6345 21.5957 33.6345 21.5957 33.614 21.5957C33.614 21.5957 33.5934 21.5957 33.5934 21.5754V21.4943L33.5729 21.474V21.4132C33.5729 21.3929 33.5729 21.3726 33.5524 21.3523C33.5524 21.3118 33.5524 21.2915 33.5318 21.2915C33.5318 21.2915 33.5113 21.2509 33.5113 21.2307C33.4908 21.2307 33.4908 21.2307 33.4908 21.2104C33.4908 21.1901 33.4908 21.1698 33.4702 21.1698C33.4702 21.1698 33.4497 21.1293 33.4497 21.109C33.4292 21.109 33.4292 21.109 33.4292 21.0887V21.0685C33.4086 21.0482 33.4086 21.0279 33.4086 21.0076C33.3881 20.9873 33.3881 20.9671 33.3881 20.9468C33.3676 20.9265 33.3676 20.9062 33.3676 20.886C33.347 20.8454 33.3265 20.8251 33.3059 20.7846C33.2854 20.7643 33.2649 20.7237 33.2443 20.6832L33.2238 20.6629V20.6426L33.1622 20.5818L33.1417 20.521L33.1211 20.4601L33.039 20.379L32.9774 20.3182C32.9774 20.2979 32.9774 20.2776 32.9569 20.2573L32.8953 20.1965L32.8337 20.1357L32.8131 20.0748C32.7926 20.0748 32.7926 20.0748 32.7926 20.0546C32.7926 20.0546 32.7926 20.0343 32.7721 20.0343C32.7515 20.014 32.731 19.9937 32.731 19.9735C32.731 19.9532 32.6899 19.9329 32.6694 19.9126L32.6489 19.8923L32.5873 19.8315C32.5667 19.8315 32.5667 19.8315 32.5667 19.8112C32.5667 19.8112 32.5667 19.791 32.5462 19.791L32.4846 19.7301L32.423 19.7098C32.3819 19.6693 32.3409 19.649 32.2998 19.6287L32.2382 19.6085C32.2382 19.5882 32.2177 19.5882 32.1766 19.5882V19.5679L32.115 19.5476C32.0945 19.5476 32.0945 19.5476 32.0945 19.5273C32.0945 19.5273 32.0945 19.5071 32.0739 19.5071C32.0328 19.4665 31.9918 19.4462 31.9507 19.4462C31.8686 19.4057 31.8275 19.3854 31.807 19.3854C31.7864 19.3651 31.7659 19.3651 31.7454 19.3651C31.7248 19.3448 31.7043 19.3448 31.6838 19.3448C31.6632 19.3246 31.6427 19.3246 31.6222 19.3246H31.6016C31.5811 19.3043 31.5606 19.3043 31.54 19.3043C31.499 19.284 31.4784 19.284 31.4784 19.284C31.4784 19.284 31.4374 19.284 31.4168 19.2637C31.3963 19.2637 31.3758 19.2637 31.3552 19.2435C31.3347 19.2435 31.3142 19.2232 31.2936 19.2232H31.2115V19.2029H31.1499C30.8008 19.1015 30.2464 18.9798 29.4866 18.8176C28.7269 18.6554 27.885 18.4932 26.9815 18.331C26.8378 18.2904 26.6735 18.2701 26.5298 18.2498C26.386 18.2296 26.2218 18.2093 26.078 18.1687C25.8111 18.1282 25.5441 18.0876 25.2772 18.0268C25.0103 17.966 24.7433 17.9254 24.4764 17.8848C24.4558 17.8848 24.4353 17.8848 24.4353 17.8646C24.4353 17.8646 24.4148 17.8443 24.3942 17.8443C24.3121 17.8443 24.23 17.824 24.1068 17.7835H24.0246H23.963C23.9425 17.7632 23.922 17.7632 23.8809 17.7632C23.8398 17.7632 23.8193 17.7632 23.7988 17.7429C23.7782 17.7429 23.7577 17.7226 23.7166 17.7226C23.6756 17.7226 23.655 17.7226 23.6345 17.7024H23.5113C23.306 17.6618 23.1211 17.6415 22.9363 17.601C22.7721 17.5807 22.6078 17.5401 22.4641 17.4996C22.2998 17.459 22.1355 17.4387 21.9918 17.4185C21.848 17.3982 21.7248 17.3779 21.6427 17.3576C21.5195 17.3374 21.4374 17.3171 21.3552 17.2968C20.7803 17.1549 20.2669 16.9115 19.7947 16.5871C19.3224 16.2626 18.9117 15.8976 18.5832 15.4515C18.2341 15.0054 17.9671 14.5187 17.7823 13.9712C17.577 13.4238 17.4743 12.856 17.4743 12.2679C17.4743 11.5582 17.6181 10.889 17.885 10.2401C18.1519 9.61154 18.5421 9.04376 19.0144 8.57738C19.4866 8.11099 20.0411 7.74599 20.6776 7.4621C21.3142 7.17821 21.9918 7.03627 22.731 7.01599H22.8542H30.4517H30.7597C31.4374 7.05655 32.0739 7.19849 32.6694 7.48238C33.2649 7.74599 33.7782 8.11099 34.2094 8.53682C34.6612 8.96265 35.0103 9.4696 35.2977 10.0374C35.5852 10.6051 35.7495 11.2135 35.8111 11.8421H33.7372C33.6756 11.4771 33.5524 11.1121 33.3881 10.7674C33.2033 10.4226 32.9774 10.1388 32.7105 9.87515C32.4435 9.63182 32.115 9.42904 31.7659 9.26682C31.4168 9.12487 31.0472 9.02349 30.6365 9.02349H30.5544H30.4312H30.2875H22.9569H22.8131H22.6899C22.2587 9.04376 21.848 9.14515 21.4579 9.30737C21.0678 9.4696 20.7392 9.71293 20.4517 10.0171C20.1643 10.3213 19.9384 10.666 19.7741 11.031C19.6099 11.4163 19.5277 11.8218 19.5277 12.2476V12.3288V12.4099V12.4707V12.5315V12.5721V12.6329V12.6532L19.5482 12.6735V12.7343V12.7749V12.8357C19.5688 12.856 19.5688 12.8763 19.5688 12.8965V12.9574V12.9776L19.5893 12.9979V13.0588V13.079L19.6099 13.0993V13.1601C19.6304 13.1804 19.6304 13.2007 19.6304 13.221C19.6304 13.2413 19.6304 13.2615 19.6509 13.2615C19.6509 13.2615 19.6715 13.2818 19.6715 13.3021C19.692 13.3426 19.7125 13.3629 19.7125 13.4035C19.7125 13.4238 19.7331 13.4643 19.7536 13.5049C19.7536 13.5454 19.7536 13.5657 19.7741 13.586C19.7741 13.6063 19.7741 13.6265 19.7947 13.6468C19.7947 13.6671 19.7947 13.6874 19.8152 13.6874C19.8152 13.6874 19.8357 13.7076 19.8357 13.7279L19.8563 13.7887C19.8768 13.7887 19.8768 13.809 19.8768 13.8496H19.8973C19.8973 13.8901 19.8973 13.9104 19.9179 13.9104V13.9307L19.9384 13.951L19.9589 13.9712V13.9915C19.9795 14.0118 19.9795 14.0321 19.9795 14.0524H20C20 14.0929 20 14.1132 20.0205 14.1132L20.0821 14.174V14.1943L20.1027 14.2551L20.1643 14.316L20.2875 14.4376L20.4107 14.5796C20.4312 14.5796 20.4312 14.5796 20.4312 14.5999C20.4312 14.5999 20.4312 14.6201 20.4517 14.6201L20.5133 14.681L20.5749 14.7418L20.6365 14.7621C20.6365 14.7824 20.6365 14.7824 20.6571 14.7824V14.8026C20.6776 14.8026 20.6981 14.8026 20.7187 14.8229L20.7392 14.8432H20.7597C20.7597 14.8635 20.7597 14.8635 20.7803 14.8635L20.8008 14.8837L20.8214 14.904C20.8419 14.904 20.8624 14.904 20.883 14.9243C20.9035 14.9243 20.9035 14.9243 20.9035 14.9446C20.9035 14.9446 20.9035 14.9649 20.924 14.9649L21.2731 15.1676C21.3142 15.1676 21.3552 15.1879 21.3963 15.2285C21.4374 15.2285 21.4579 15.2285 21.4784 15.2487H21.54L21.5606 15.269H21.6222C21.6427 15.2893 21.6632 15.2893 21.6838 15.2893H21.7043C21.7043 15.3096 21.7248 15.3096 21.7659 15.3096C21.7864 15.3096 21.807 15.3096 21.8275 15.3299H21.848H21.9096L21.9302 15.3501H21.9918C22.0328 15.3501 22.0534 15.3501 22.0739 15.3704H22.1355C22.1766 15.3704 22.1971 15.3704 22.2177 15.3907H22.2998H22.3614H22.3819C22.4025 15.3907 22.5257 15.411 22.7515 15.4515C22.9774 15.4921 23.2649 15.5326 23.614 15.5935C23.963 15.6543 24.3737 15.7151 24.846 15.7962C25.3183 15.8774 25.8111 15.9585 26.3244 16.0396C26.5092 16.0801 26.653 16.1004 26.7146 16.1207C27.6181 16.2626 28.5216 16.4451 29.4456 16.6276C30.4723 16.8912 31.2526 17.0737 31.8891 17.2765Z" stroke="white" stroke-width="2" stroke-miterlimit="10"/>
<path d="M81.232 27.5981H79.1786V18.0473H65.5236V27.5981H63.4702V6.99597H65.5236V16.0196H79.1786V6.99597H81.232V27.5981Z" fill="white"/>
<path d="M81.232 27.5981H79.1786V18.0473H65.5236V27.5981H63.4702V6.99597H65.5236V16.0196H79.1786V6.99597H81.232V27.5981Z" stroke="white" stroke-width="2" stroke-miterlimit="10"/>
<path d="M12.4435 53.3506C12.8542 53.4722 13.2444 53.6344 13.5729 53.8575C13.922 54.0806 14.2094 54.3442 14.4559 54.6686C14.7023 54.9728 14.9076 55.3175 15.0513 55.7028C15.1951 56.088 15.2772 56.4733 15.2772 56.8992C15.2772 57.4061 15.1745 57.8928 14.9692 58.3389C14.7639 58.785 14.4764 59.1905 14.1273 59.515C13.7782 59.8597 13.3676 60.1233 12.8953 60.3058C12.423 60.4883 11.9097 60.5897 11.3758 60.5897H5.83163H5.74949C5.21561 60.5694 4.7228 60.468 4.27105 60.2855C3.79877 60.103 3.40863 59.8394 3.05955 59.4947C2.71048 59.1703 2.44354 58.785 2.2382 58.3389C2.03286 57.8928 1.93019 57.4264 1.93019 56.9194H3.4497C3.4497 57.2236 3.5113 57.5075 3.65504 57.7914C3.77824 58.055 3.96304 58.2983 4.16838 58.5011C4.37372 58.7039 4.64066 58.8661 4.92814 58.9878C5.21561 59.1094 5.52362 59.1703 5.85216 59.1703H11.2936V59.15C11.3142 59.15 11.3347 59.15 11.3552 59.15C11.3552 59.15 11.3758 59.15 11.4168 59.15C11.7454 59.15 12.0534 59.0891 12.3614 58.9675C12.6489 58.8458 12.9158 58.6836 13.1212 58.4808C13.3265 58.278 13.5113 58.0144 13.6345 57.7508C13.7577 57.4669 13.8398 57.183 13.8398 56.8586C13.8398 56.8383 13.8398 56.818 13.8193 56.7978V56.7572V56.7167V56.6964V56.6761V56.6355V56.6153V56.595V56.5544C13.7988 56.5342 13.7988 56.5342 13.7988 56.5139C13.7988 56.453 13.7988 56.4328 13.7782 56.4125V56.3719V56.3517C13.7782 56.3314 13.7782 56.3314 13.7577 56.3314C13.7577 56.3314 13.7372 56.3314 13.7372 56.3111V56.2705L13.7166 56.2503V56.2097C13.7166 56.1894 13.7166 56.1894 13.6961 56.1692C13.6961 56.1489 13.6961 56.1286 13.6756 56.1286C13.6756 56.1286 13.655 56.1083 13.655 56.088C13.6345 56.088 13.6345 56.088 13.6345 56.0678C13.6345 56.0475 13.6345 56.0475 13.614 56.0475C13.614 56.0475 13.5934 56.0272 13.5934 56.0069C13.5729 56.0069 13.5729 56.0069 13.5729 55.9867V55.9664C13.5524 55.9664 13.5524 55.9664 13.5524 55.9461C13.5318 55.9258 13.5318 55.9258 13.5318 55.9055C13.5113 55.8853 13.5113 55.8853 13.5113 55.865C13.4908 55.8447 13.4908 55.8244 13.4702 55.8042C13.4497 55.7839 13.4497 55.7636 13.4292 55.7433L13.4086 55.723V55.7028L13.3676 55.6622L13.347 55.6217L13.3265 55.5811L13.2649 55.5203L13.2238 55.4797C13.2238 55.4594 13.2238 55.4594 13.2033 55.4392L13.1622 55.3986L13.1212 55.358L13.1006 55.3175C13.0801 55.3175 13.0801 55.3175 13.0801 55.3175C13.0801 55.3175 13.0801 55.3175 13.0596 55.3175C13.039 55.2972 13.039 55.2972 13.0185 55.2769C13.0185 55.2567 12.998 55.2567 12.9569 55.2364L12.9363 55.2161L12.8953 55.1755C12.8747 55.1755 12.8747 55.1755 12.8747 55.1755C12.8747 55.1755 12.8747 55.1755 12.8542 55.1755L12.8131 55.135L12.7721 55.1147C12.7515 55.0944 12.7105 55.0742 12.6899 55.0539L12.6489 55.0336C12.6489 55.0133 12.6283 55.0133 12.6078 55.0133V54.9525L12.5667 54.9322C12.5462 54.9322 12.5462 54.9322 12.5462 54.9322C12.5462 54.9322 12.5462 54.9322 12.5257 54.9322C12.5051 54.9119 12.4641 54.8917 12.4435 54.8917C12.3819 54.8714 12.3614 54.8511 12.3409 54.8511C12.3203 54.8308 12.3203 54.8308 12.2998 54.8308C12.2793 54.8105 12.2793 54.8105 12.2587 54.8105C12.2382 54.7903 12.2382 54.7903 12.2177 54.7903H12.1971C12.1766 54.77 12.1766 54.77 12.1561 54.77C12.1355 54.7497 12.115 54.7497 12.0945 54.7497C12.0945 54.7497 12.0739 54.7497 12.0329 54.7294C12.0123 54.7294 12.0123 54.7294 11.9918 54.7294C11.9713 54.7294 11.9713 54.7294 11.9507 54.7294H11.9097V54.7092H11.8686C11.6222 54.6483 11.2115 54.5469 10.6571 54.4455C10.1027 54.3239 9.48666 54.2225 8.82957 54.1008C8.7269 54.0805 8.6037 54.0603 8.50103 54.04C8.39836 54.0197 8.27516 53.9994 8.17249 53.9792C7.98768 53.9589 7.78235 53.9183 7.59754 53.8778C7.41274 53.8372 7.2074 53.7967 7.02259 53.7764C7.00206 53.7764 7.00206 53.7764 6.98152 53.7764C6.98152 53.7764 6.96099 53.7764 6.94046 53.7764C6.87885 53.7764 6.81725 53.7561 6.73512 53.7358H6.67352H6.63245C6.61191 53.7155 6.59138 53.7155 6.57085 53.7155C6.55031 53.7155 6.52978 53.7155 6.50924 53.7155C6.48871 53.7155 6.46818 53.7155 6.44764 53.7155C6.42711 53.7155 6.40658 53.7155 6.38604 53.6953H6.30391C6.16017 53.675 6.01643 53.6547 5.89323 53.6344C5.77003 53.6142 5.64682 53.5939 5.54415 53.5736C5.42095 53.5533 5.29775 53.533 5.19508 53.5128C5.09241 53.4925 5.01027 53.4925 4.92814 53.4722C4.846 53.4519 4.7844 53.4519 4.7228 53.4317C4.31212 53.3303 3.92198 53.1681 3.59343 52.945C3.24436 52.7219 2.95688 52.4583 2.71048 52.1339C2.46407 51.8297 2.25873 51.485 2.11499 51.0997C1.97126 50.7144 1.88912 50.3089 1.88912 49.8831C1.88912 49.3761 1.99179 48.9097 2.19713 48.4636C2.40247 48.0175 2.66941 47.6322 3.01849 47.2875C3.36756 46.9631 3.75771 46.6995 4.22998 46.4967C4.70226 46.2939 5.19508 46.1925 5.72896 46.1722H5.81109H11.3552H11.5811C12.0739 46.1925 12.5462 46.3142 12.9774 46.4967C13.4086 46.6792 13.7782 46.9428 14.1068 47.247C14.4353 47.5511 14.7023 47.8958 14.9076 48.3014C15.1129 48.707 15.2361 49.1328 15.2772 49.5789H13.7577C13.7166 49.3153 13.6345 49.072 13.4908 48.8286C13.3676 48.5853 13.2033 48.3825 12.998 48.2C12.7926 48.0175 12.5667 47.8756 12.3203 47.7742C12.0739 47.6728 11.7865 47.612 11.499 47.5917H11.4374H11.3552H11.2526H5.91376H5.81109H5.72896C5.42095 47.612 5.11294 47.6728 4.82547 47.7945C4.53799 47.9161 4.29159 48.0783 4.08625 48.2811C3.88091 48.4839 3.71664 48.7272 3.59343 49.0111C3.47023 49.295 3.40863 49.5789 3.40863 49.8831V49.9439V50.0047V50.0453V50.0858V50.1061V50.1467V50.1669L3.42916 50.1872V50.2278V50.2481V50.2886C3.4497 50.3089 3.4497 50.3089 3.4497 50.3292V50.3697V50.39L3.47023 50.4103V50.4508V50.4711L3.49076 50.4914V50.5319C3.5113 50.5522 3.5113 50.5522 3.5113 50.5725C3.5113 50.5928 3.5113 50.5928 3.53183 50.5928L3.55237 50.6131C3.5729 50.6333 3.5729 50.6536 3.59343 50.6739C3.59343 50.6942 3.61397 50.7144 3.6345 50.7347C3.6345 50.755 3.6345 50.7753 3.65504 50.7956C3.65504 50.8158 3.65504 50.8158 3.67557 50.8361C3.67557 50.8564 3.67557 50.8564 3.6961 50.8564L3.71664 50.8767L3.73717 50.9172C3.75771 50.9172 3.7577 50.9375 3.7577 50.9578H3.77824C3.77824 50.9781 3.77824 50.9983 3.79877 50.9983V51.0186L3.81931 51.0389L3.83984 51.0592V51.0794C3.86037 51.0997 3.86037 51.0997 3.86037 51.12H3.88091C3.88091 51.1403 3.88091 51.1606 3.90144 51.1606L3.94251 51.2011V51.2214L3.96304 51.2619L4.00411 51.3025L4.08625 51.3836L4.16838 51.485C4.18892 51.485 4.18892 51.485 4.18892 51.485C4.18892 51.485 4.18892 51.485 4.20945 51.485L4.25052 51.5256L4.29159 51.5661L4.33265 51.5864C4.33265 51.6067 4.33265 51.6067 4.35319 51.6067V51.6269C4.37372 51.6269 4.37372 51.6269 4.39426 51.6472L4.41479 51.6675H4.43532C4.43532 51.6878 4.43532 51.6878 4.45586 51.6878L4.47639 51.7081L4.49692 51.7283C4.51746 51.7283 4.51746 51.7283 4.53799 51.7486C4.55853 51.7486 4.55853 51.7486 4.55853 51.7486C4.55853 51.7486 4.55853 51.7486 4.57906 51.7486L4.82547 51.8906C4.846 51.8906 4.88707 51.9108 4.9076 51.9311C4.92814 51.9311 4.94867 51.9311 4.9692 51.9514H5.01027L5.03081 51.9717H5.07187C5.09241 51.9919 5.09241 51.9919 5.11294 51.9919H5.13348C5.13348 52.0122 5.15401 52.0122 5.17454 52.0122C5.19508 52.0122 5.19508 52.0122 5.21561 52.0325H5.23614H5.27721L5.29775 52.0528H5.33881C5.35935 52.0528 5.37988 52.0528 5.40041 52.0731H5.44148C5.46202 52.0731 5.48255 52.0731 5.50308 52.0933H5.56469H5.60575H5.62629C5.64682 52.0933 5.72896 52.1136 5.89323 52.1339C6.0575 52.1542 6.26284 52.1947 6.52978 52.2353C6.77619 52.2758 7.08419 52.3164 7.43327 52.3772C7.78235 52.4381 8.13142 52.4989 8.50103 52.5597C8.64477 52.58 8.7269 52.6003 8.78851 52.6206C9.44559 52.7219 10.1232 52.8436 10.7803 52.9855C11.4374 53.1275 11.9713 53.2086 12.4435 53.3506Z" fill="white"/>
<path d="M31.499 54.0806H25.1335V60.6303H23.5934V46.0912H32.9774C33.5318 46.1317 34.0452 46.2534 34.538 46.4967C35.0308 46.7198 35.462 47.024 35.8111 47.389C36.1602 47.754 36.4476 48.1595 36.6735 48.6259C36.8789 49.0923 37.0021 49.579 37.0021 50.0859C37.0021 50.5928 36.8994 51.0592 36.7146 51.5256C36.5298 51.992 36.2423 52.3773 35.9138 52.7423C35.5647 53.087 35.1745 53.3912 34.7023 53.6345C34.23 53.8778 33.7372 54.0198 33.2033 54.1009H31.499V54.0806ZM32.9364 52.6814C33.2854 52.6409 33.614 52.5395 33.922 52.3976C34.23 52.2353 34.4969 52.0528 34.7228 51.8298C34.9487 51.6067 35.1129 51.3431 35.2567 51.0389C35.3799 50.7348 35.462 50.4306 35.462 50.0859C35.462 49.7412 35.4004 49.4167 35.2567 49.1126C35.1129 48.8084 34.9281 48.5448 34.6817 48.3015C34.4353 48.0784 34.1479 47.8756 33.8193 47.754C33.4908 47.612 33.1417 47.5309 32.7721 47.5106H25.154V52.6814H32.9364Z" fill="white"/>
<path d="M63.1622 60.6303H61.499L58.5421 55.1554H50.0616L47.1047 60.6303H45.4415L53.3881 45.8682H53.4086H53.9014H54.2916H54.6817H55.154H55.1746L63.1622 60.6303ZM50.8214 53.6954H57.7618L54.3121 47.2876H54.2916L50.8214 53.6954Z" fill="white"/>
<path d="M73.9836 59.15H76.2423V60.5897H70.3901V59.15H72.6489V47.5309H70.3901V46.1115H76.2423V47.5309H73.9836V59.15Z" fill="white"/>
<path d="M99.4456 60.6709H97.9466L86.037 48.1798V60.6709H84.538V46.0709H86.037L97.9671 58.562V46.0709H99.4661V60.6709H99.4456Z" fill="white"/>
<path d="M12.4435 53.3506C12.8542 53.4722 13.2444 53.6344 13.5729 53.8575C13.922 54.0806 14.2094 54.3442 14.4559 54.6686C14.7023 54.9728 14.9076 55.3175 15.0513 55.7028C15.1951 56.088 15.2772 56.4733 15.2772 56.8992C15.2772 57.4061 15.1745 57.8928 14.9692 58.3389C14.7639 58.785 14.4764 59.1905 14.1273 59.515C13.7782 59.8597 13.3676 60.1233 12.8953 60.3058C12.423 60.4883 11.9097 60.5897 11.3758 60.5897H5.83163H5.74949C5.21561 60.5694 4.7228 60.468 4.27105 60.2855C3.79877 60.103 3.40863 59.8394 3.05955 59.4947C2.71048 59.1703 2.44354 58.785 2.2382 58.3389C2.03286 57.8928 1.93019 57.4264 1.93019 56.9194H3.4497C3.4497 57.2236 3.5113 57.5075 3.65504 57.7914C3.77824 58.055 3.96304 58.2983 4.16838 58.5011C4.37372 58.7039 4.64066 58.8661 4.92814 58.9878C5.21561 59.1094 5.52362 59.1703 5.85216 59.1703H11.2936V59.15C11.3142 59.15 11.3347 59.15 11.3552 59.15C11.3552 59.15 11.3758 59.15 11.4168 59.15C11.7454 59.15 12.0534 59.0891 12.3614 58.9675C12.6489 58.8458 12.9158 58.6836 13.1212 58.4808C13.3265 58.278 13.5113 58.0144 13.6345 57.7508C13.7577 57.4669 13.8398 57.183 13.8398 56.8586C13.8398 56.8383 13.8398 56.818 13.8193 56.7978V56.7572V56.7167V56.6964V56.6761V56.6355V56.6153V56.595V56.5544C13.7988 56.5342 13.7988 56.5342 13.7988 56.5139C13.7988 56.453 13.7988 56.4328 13.7782 56.4125V56.3719V56.3517C13.7782 56.3314 13.7782 56.3314 13.7577 56.3314C13.7577 56.3314 13.7372 56.3314 13.7372 56.3111V56.2705L13.7166 56.2503V56.2097C13.7166 56.1894 13.7166 56.1894 13.6961 56.1692C13.6961 56.1489 13.6961 56.1286 13.6756 56.1286C13.6756 56.1286 13.655 56.1083 13.655 56.088C13.6345 56.088 13.6345 56.088 13.6345 56.0678C13.6345 56.0475 13.6345 56.0475 13.614 56.0475C13.614 56.0475 13.5934 56.0272 13.5934 56.0069C13.5729 56.0069 13.5729 56.0069 13.5729 55.9867V55.9664C13.5524 55.9664 13.5524 55.9664 13.5524 55.9461C13.5318 55.9258 13.5318 55.9258 13.5318 55.9055C13.5113 55.8853 13.5113 55.8853 13.5113 55.865C13.4908 55.8447 13.4908 55.8244 13.4702 55.8042C13.4497 55.7839 13.4497 55.7636 13.4292 55.7433L13.4086 55.723V55.7028L13.3676 55.6622L13.347 55.6217L13.3265 55.5811L13.2649 55.5203L13.2238 55.4797C13.2238 55.4594 13.2238 55.4594 13.2033 55.4392L13.1622 55.3986L13.1212 55.358L13.1006 55.3175C13.0801 55.3175 13.0801 55.3175 13.0801 55.3175C13.0801 55.3175 13.0801 55.3175 13.0596 55.3175C13.039 55.2972 13.039 55.2972 13.0185 55.2769C13.0185 55.2567 12.998 55.2567 12.9569 55.2364L12.9363 55.2161L12.8953 55.1755C12.8747 55.1755 12.8747 55.1755 12.8747 55.1755C12.8747 55.1755 12.8747 55.1755 12.8542 55.1755L12.8131 55.135L12.7721 55.1147C12.7515 55.0944 12.7105 55.0742 12.6899 55.0539L12.6489 55.0336C12.6489 55.0133 12.6283 55.0133 12.6078 55.0133V54.9525L12.5667 54.9322C12.5462 54.9322 12.5462 54.9322 12.5462 54.9322C12.5462 54.9322 12.5462 54.9322 12.5257 54.9322C12.5051 54.9119 12.4641 54.8917 12.4435 54.8917C12.3819 54.8714 12.3614 54.8511 12.3409 54.8511C12.3203 54.8308 12.3203 54.8308 12.2998 54.8308C12.2793 54.8105 12.2793 54.8105 12.2587 54.8105C12.2382 54.7903 12.2382 54.7903 12.2177 54.7903H12.1971C12.1766 54.77 12.1766 54.77 12.1561 54.77C12.1355 54.7497 12.115 54.7497 12.0945 54.7497C12.0945 54.7497 12.0739 54.7497 12.0329 54.7294C12.0123 54.7294 12.0123 54.7294 11.9918 54.7294C11.9713 54.7294 11.9713 54.7294 11.9507 54.7294H11.9097V54.7092H11.8686C11.6222 54.6483 11.2115 54.5469 10.6571 54.4455C10.1027 54.3239 9.48666 54.2225 8.82957 54.1008C8.7269 54.0805 8.6037 54.0603 8.50103 54.04C8.39836 54.0197 8.27516 53.9994 8.17249 53.9792C7.98768 53.9589 7.78235 53.9183 7.59754 53.8778C7.41274 53.8372 7.2074 53.7967 7.02259 53.7764C7.00206 53.7764 7.00206 53.7764 6.98152 53.7764C6.98152 53.7764 6.96099 53.7764 6.94046 53.7764C6.87885 53.7764 6.81725 53.7561 6.73512 53.7358H6.67352H6.63245C6.61191 53.7156 6.59138 53.7155 6.57085 53.7155C6.55031 53.7155 6.52978 53.7155 6.50924 53.7155C6.48871 53.7155 6.46818 53.7155 6.44764 53.7155C6.42711 53.7155 6.40658 53.7155 6.38604 53.6953H6.30391C6.16017 53.675 6.01643 53.6547 5.89323 53.6344C5.77003 53.6142 5.64682 53.5939 5.54415 53.5736C5.42095 53.5533 5.29775 53.533 5.19508 53.5128C5.09241 53.4925 5.01027 53.4925 4.92814 53.4722C4.846 53.4519 4.7844 53.4519 4.7228 53.4317C4.31212 53.3303 3.92198 53.1681 3.59343 52.945C3.24436 52.7219 2.95688 52.4583 2.71048 52.1339C2.46407 51.8297 2.25873 51.485 2.11499 51.0997C1.97126 50.7144 1.88912 50.3089 1.88912 49.8831C1.88912 49.3761 1.99179 48.9097 2.19713 48.4636C2.40247 48.0175 2.66941 47.6322 3.01849 47.2875C3.36756 46.9631 3.75771 46.6995 4.22998 46.4967C4.70226 46.2939 5.19508 46.1925 5.72896 46.1722H5.81109H11.3552H11.5811C12.0739 46.1925 12.5462 46.3142 12.9774 46.4967C13.4086 46.6792 13.7782 46.9428 14.1068 47.247C14.4353 47.5511 14.7023 47.8958 14.9076 48.3014C15.1129 48.707 15.2361 49.1328 15.2772 49.5789H13.7577C13.7166 49.3153 13.6345 49.072 13.4908 48.8286C13.3676 48.5853 13.2033 48.3825 12.998 48.2C12.7926 48.0175 12.5667 47.8756 12.3203 47.7742C12.0739 47.6728 11.7865 47.612 11.499 47.5917H11.4374H11.3552H11.2526H5.91376H5.81109H5.72896C5.42095 47.612 5.11294 47.6728 4.82547 47.7945C4.53799 47.9161 4.29159 48.0783 4.08625 48.2811C3.88091 48.4839 3.71664 48.7272 3.59343 49.0111C3.47023 49.295 3.40863 49.5789 3.40863 49.8831V49.9439V50.0047V50.0453V50.0858V50.1061V50.1467V50.1669L3.42916 50.1872V50.2278V50.2481V50.2886C3.4497 50.3089 3.4497 50.3089 3.4497 50.3292V50.3697V50.39L3.47023 50.4103V50.4508V50.4711L3.49076 50.4914V50.5319C3.5113 50.5522 3.5113 50.5522 3.5113 50.5725C3.5113 50.5928 3.5113 50.5928 3.53183 50.5928L3.55237 50.6131C3.5729 50.6333 3.5729 50.6536 3.59343 50.6739C3.59343 50.6942 3.61397 50.7144 3.6345 50.7347C3.6345 50.755 3.6345 50.7753 3.65504 50.7956C3.65504 50.8158 3.65504 50.8158 3.67557 50.8361C3.67557 50.8564 3.67557 50.8564 3.6961 50.8564L3.71664 50.8767L3.73717 50.9172C3.75771 50.9172 3.7577 50.9375 3.7577 50.9578H3.77824C3.77824 50.9781 3.77824 50.9983 3.79877 50.9983V51.0186L3.81931 51.0389L3.83984 51.0592V51.0794C3.86037 51.0997 3.86037 51.0997 3.86037 51.12H3.88091C3.88091 51.1403 3.88091 51.1606 3.90144 51.1606L3.94251 51.2011V51.2214L3.96304 51.2619L4.00411 51.3025L4.08625 51.3836L4.16838 51.485C4.18892 51.485 4.18892 51.485 4.18892 51.485C4.18892 51.485 4.18892 51.485 4.20945 51.485L4.25052 51.5256L4.29159 51.5661L4.33265 51.5864C4.33265 51.6067 4.33265 51.6067 4.35319 51.6067V51.6269C4.37372 51.6269 4.37372 51.6269 4.39426 51.6472L4.41479 51.6675H4.43532C4.43532 51.6878 4.43532 51.6878 4.45586 51.6878L4.47639 51.7081L4.49692 51.7283C4.51746 51.7283 4.51746 51.7283 4.53799 51.7486C4.55853 51.7486 4.55853 51.7486 4.55853 51.7486C4.55853 51.7486 4.55853 51.7486 4.57906 51.7486L4.82547 51.8906C4.846 51.8906 4.88707 51.9108 4.9076 51.9311C4.92814 51.9311 4.94867 51.9311 4.9692 51.9514H5.01027L5.03081 51.9717H5.07187C5.09241 51.9919 5.09241 51.9919 5.11294 51.9919H5.13347C5.13347 52.0122 5.15401 52.0122 5.17454 52.0122C5.19508 52.0122 5.19508 52.0122 5.21561 52.0325H5.23614H5.27721L5.29775 52.0528H5.33881C5.35935 52.0528 5.37988 52.0528 5.40042 52.0731H5.44148C5.46202 52.0731 5.48255 52.0731 5.50308 52.0933H5.56469H5.60575H5.62629C5.64682 52.0933 5.72896 52.1136 5.89323 52.1339C6.0575 52.1542 6.26284 52.1947 6.52978 52.2353C6.77618 52.2758 7.08419 52.3164 7.43327 52.3772C7.78235 52.4381 8.13142 52.4989 8.50103 52.5597C8.64477 52.58 8.7269 52.6003 8.78851 52.6206C9.44559 52.7219 10.1232 52.8436 10.7803 52.9856C11.4374 53.1275 11.9713 53.2086 12.4435 53.3506Z" stroke="white" stroke-width="2" stroke-miterlimit="10"/>
<path d="M31.499 54.0806H25.1335V60.6303H23.5934V46.0912H32.9774C33.5318 46.1317 34.0452 46.2534 34.538 46.4967C35.0308 46.7198 35.462 47.024 35.8111 47.389C36.1602 47.754 36.4476 48.1595 36.6735 48.6259C36.8789 49.0923 37.0021 49.579 37.0021 50.0859C37.0021 50.5928 36.8994 51.0592 36.7146 51.5256C36.5298 51.992 36.2423 52.3773 35.9138 52.7423C35.5647 53.087 35.1745 53.3912 34.7023 53.6345C34.23 53.8778 33.7372 54.0198 33.2033 54.1009H31.499V54.0806ZM32.9364 52.6814C33.2854 52.6409 33.614 52.5395 33.922 52.3976C34.23 52.2353 34.4969 52.0528 34.7228 51.8298C34.9487 51.6067 35.1129 51.3431 35.2567 51.0389C35.3799 50.7348 35.462 50.4306 35.462 50.0859C35.462 49.7412 35.4004 49.4167 35.2567 49.1126C35.1129 48.8084 34.9281 48.5448 34.6817 48.3015C34.4353 48.0784 34.1479 47.8756 33.8193 47.754C33.4908 47.612 33.1417 47.5309 32.7721 47.5106H25.154V52.6814H32.9364V52.6814Z" stroke="white" stroke-width="2" stroke-miterlimit="10"/>
<path d="M63.1622 60.6303H61.499L58.5421 55.1554H50.0616L47.1047 60.6303H45.4415L53.3881 45.8682H53.4086H53.9014H54.2916H54.6817H55.154H55.1746L63.1622 60.6303ZM50.8214 53.6954H57.7618L54.3121 47.2876H54.2916L50.8214 53.6954Z" stroke="white" stroke-width="2" stroke-miterlimit="10"/>
<path d="M73.9836 59.15H76.2423V60.5897H70.3901V59.15H72.6489V47.5309H70.3901V46.1115H76.2423V47.5309H73.9836V59.15Z" stroke="white" stroke-width="2" stroke-miterlimit="10"/>
<path d="M99.4456 60.6709H97.9466L86.037 48.1798V60.6709H84.538V46.0709H86.037L97.9671 58.562V46.0709H99.4661V60.6709H99.4456Z" stroke="white" stroke-width="2" stroke-miterlimit="10"/>
<path d="M13.347 84.5783H11.848V77.8056H1.90965V84.5783H0.410675V69.9784H1.90965V76.3659H11.8686V69.9784H13.347V84.5783Z" fill="white"/>
<path d="M29.8357 69.9987C30.9035 69.9987 31.8891 70.1812 32.8337 70.5664C33.7782 70.9517 34.5996 71.4789 35.2772 72.1278C35.9754 72.7767 36.5298 73.5473 36.9405 74.4395C37.3511 75.3114 37.5565 76.2645 37.5565 77.2784C37.5565 78.2922 37.3511 79.225 36.9405 80.1172C36.5298 80.9892 35.9754 81.7597 35.2772 82.4289C34.5791 83.0778 33.7577 83.605 32.8337 83.9903C31.8891 84.3756 30.9035 84.5581 29.8357 84.5581C28.768 84.5581 27.7823 84.3756 26.8378 83.9903C25.9138 83.605 25.0924 83.0778 24.3943 82.4289C23.6961 81.78 23.1417 81.0095 22.731 80.1172C22.3203 79.2453 22.115 78.2922 22.115 77.2784C22.115 76.2645 22.3203 75.3317 22.731 74.4395C23.1417 73.5675 23.6961 72.797 24.3943 72.1278C25.0924 71.4789 25.9138 70.9517 26.8378 70.5664C27.7823 70.2014 28.7885 69.9987 29.8357 69.9987ZM29.8357 83.2197C30.6982 83.2197 31.5195 83.0575 32.2793 82.7534C33.039 82.4492 33.7166 82.0233 34.2711 81.4759C34.846 80.9486 35.2772 80.32 35.6263 79.59C35.9548 78.86 36.1191 78.0895 36.1191 77.2784C36.1191 76.4673 35.9548 75.6967 35.6263 74.9667C35.2977 74.2367 34.846 73.6284 34.2711 73.0809C33.6961 72.5536 33.039 72.1278 32.2793 71.8034C31.5195 71.4992 30.6982 71.337 29.8357 71.337C28.9733 71.337 28.152 71.4992 27.3922 71.8034C26.6325 72.1075 25.9754 72.5334 25.4004 73.0809C24.8255 73.6081 24.3943 74.2367 24.0452 74.9667C23.6961 75.6967 23.5524 76.447 23.5524 77.2784C23.5524 78.0895 23.7166 78.86 24.0452 79.59C24.3737 80.32 24.8255 80.9486 25.4004 81.4759C25.9754 82.0031 26.6325 82.4289 27.3922 82.7534C28.152 83.0575 28.9733 83.2197 29.8357 83.2197Z" fill="white"/>
<path d="M59.4456 69.9987V78.2922C59.4456 79.1439 59.2608 79.955 58.9117 80.7256C58.5626 81.4961 58.0904 82.145 57.4743 82.7128C56.8583 83.2806 56.1602 83.7267 55.3388 84.0511C54.5175 84.3756 53.655 84.5378 52.731 84.5378C51.7865 84.5378 50.924 84.3756 50.1027 84.0511C49.2813 83.7267 48.5832 83.2806 47.9672 82.7128C47.3511 82.145 46.8789 81.4759 46.5298 80.7256C46.1807 79.955 45.9959 79.1439 45.9959 78.2922V69.9987H47.4743V77.8259C47.4949 77.907 47.4949 77.9881 47.4949 78.0692C47.4949 78.1503 47.4949 78.2314 47.4949 78.3125C47.5154 78.9817 47.6591 79.6103 47.9261 80.2186C48.193 80.8067 48.5626 81.3136 49.0349 81.7597C49.5072 82.2059 50.0616 82.5506 50.6776 82.7939C51.3142 83.0575 51.9918 83.1792 52.7105 83.1792C53.4292 83.1792 54.1068 83.0575 54.7433 82.7939C55.3799 82.5303 55.9343 82.1856 56.4271 81.7597C56.9199 81.3339 57.269 80.8067 57.5565 80.2186C57.8234 79.6306 57.9671 79.002 57.9671 78.3125V77.9678V77.8259V69.9987H59.4456Z" fill="white"/>
<path d="M78.4189 77.2783C78.8296 77.4 79.2197 77.5622 79.5483 77.7852C79.8973 78.0083 80.1848 78.2719 80.4312 78.5963C80.6776 78.9005 80.883 79.2452 81.0267 79.6305C81.1704 80.0158 81.2526 80.4011 81.2526 80.8269C81.2526 81.3338 81.1499 81.8205 80.9446 82.2666C80.7392 82.7127 80.4518 83.1183 80.1027 83.4427C79.7536 83.7874 79.3429 84.0511 78.8706 84.2336C78.3984 84.4161 77.885 84.5174 77.3511 84.5174H71.807H71.7249C71.191 84.4972 70.6982 84.3958 70.2464 84.2133C69.7741 84.0308 69.384 83.7672 69.0349 83.4224C68.6859 83.098 68.4189 82.7127 68.2136 82.2666C68.0082 81.8205 67.9056 81.3541 67.9056 80.8472H69.4251C69.4251 81.1513 69.4867 81.4352 69.6304 81.7191C69.7536 81.9827 69.9384 82.2261 70.1438 82.4288C70.3491 82.6316 70.616 82.7938 70.9035 82.9155C71.191 83.0372 71.499 83.098 71.8275 83.098H77.269V83.0777C77.2895 83.0777 77.3101 83.0777 77.3306 83.0777C77.3306 83.0777 77.3511 83.0777 77.3922 83.0777C77.7207 83.0777 78.0288 83.0169 78.3368 82.8952C78.6242 82.7736 78.8912 82.6113 79.0965 82.4086C79.3019 82.2058 79.4867 81.9422 79.6099 81.6786C79.7331 81.3947 79.8152 81.1108 79.8152 80.7863C79.8152 80.7661 79.8152 80.7458 79.7947 80.7255V80.6849V80.6444V80.6241V80.6038V80.5633V80.543V80.5227V80.4822C79.7741 80.4619 79.7741 80.4619 79.7741 80.4416C79.7741 80.3808 79.7741 80.3605 79.7536 80.3402V80.2997V80.2794C79.7536 80.2591 79.7536 80.2591 79.7331 80.2591C79.7331 80.2591 79.7331 80.2591 79.7331 80.2388V80.1983L79.7125 80.178V80.1375C79.7125 80.1172 79.7125 80.1172 79.692 80.0969C79.692 80.0766 79.692 80.0563 79.692 80.0563C79.692 80.0563 79.692 80.0361 79.692 80.0158C79.6715 80.0158 79.6715 80.0158 79.6715 79.9955C79.6715 79.9752 79.6715 79.9752 79.6509 79.9752C79.6509 79.9752 79.6509 79.955 79.6509 79.9347C79.6304 79.9347 79.6304 79.9347 79.6304 79.9144V79.8941C79.6099 79.8738 79.6099 79.8738 79.6099 79.8536C79.5893 79.8333 79.5893 79.8333 79.5893 79.813C79.5688 79.7927 79.5688 79.7927 79.5688 79.7725C79.5483 79.7522 79.5483 79.7319 79.5277 79.7116C79.5072 79.6913 79.5072 79.6711 79.4867 79.6508L79.4661 79.6305V79.6102L79.4251 79.5697L79.4045 79.5291L79.384 79.4886L79.3224 79.4277L79.2813 79.3872C79.2813 79.3669 79.2813 79.3669 79.2608 79.3466L79.2197 79.3061L79.1787 79.2655L79.1581 79.225C79.1376 79.225 79.1376 79.225 79.1376 79.225C79.1376 79.225 79.1376 79.225 79.1171 79.225C79.0965 79.2047 79.0965 79.2047 79.076 79.1844C79.076 79.1641 79.0554 79.1641 79.0144 79.1438L78.9939 79.1236L78.9528 79.083C78.9322 79.083 78.9322 79.083 78.9322 79.083C78.9322 79.083 78.9322 79.083 78.9117 79.083L78.8706 79.0425L78.8296 79.0222C78.809 79.0019 78.768 78.9816 78.7474 78.9613L78.7064 78.9411C78.7064 78.9208 78.6858 78.9208 78.6653 78.9208V78.8802L78.6242 78.86C78.6037 78.86 78.6037 78.86 78.6037 78.86C78.6037 78.86 78.6037 78.86 78.5832 78.86C78.5626 78.8397 78.5216 78.8194 78.501 78.8194C78.4394 78.7991 78.4189 78.7788 78.3984 78.7788C78.3778 78.7586 78.3778 78.7586 78.3573 78.7586C78.3368 78.7383 78.3368 78.7383 78.3162 78.7383C78.2957 78.718 78.2957 78.718 78.2752 78.718H78.2546C78.2341 78.6977 78.2341 78.6977 78.2136 78.6977C78.193 78.6775 78.1725 78.6775 78.152 78.6775C78.152 78.6775 78.1314 78.6775 78.0904 78.6572C78.0698 78.6572 78.0698 78.6572 78.0493 78.6572C78.0288 78.6572 78.0288 78.6572 78.0082 78.6572H77.9466V78.6369H77.9056C77.6591 78.5761 77.2485 78.4747 76.6941 78.3733C76.1396 78.2516 75.5236 78.1502 74.8665 78.0286C74.7639 78.0083 74.6407 77.988 74.538 77.9677C74.4353 77.9475 74.3121 77.9272 74.2095 77.9069C74.0247 77.8866 73.8193 77.8461 73.6345 77.8055C73.4497 77.765 73.2444 77.7244 73.0596 77.7041C73.039 77.7041 73.039 77.7041 73.0185 77.7041C73.0185 77.7041 72.998 77.7041 72.9774 77.7041C72.9158 77.7041 72.8542 77.6838 72.7721 77.6636H72.7105H72.6694C72.6489 77.6433 72.6284 77.6433 72.6078 77.6433C72.5873 77.6433 72.5667 77.6433 72.5462 77.6433C72.5257 77.6433 72.5051 77.6433 72.4846 77.6433C72.4641 77.6433 72.4435 77.6433 72.423 77.623H72.3409C72.1971 77.6027 72.0534 77.5825 71.9302 77.5622C71.807 77.5419 71.6838 77.5216 71.5811 77.5013C71.4579 77.4811 71.3347 77.4608 71.232 77.4405C71.1294 77.4202 71.0472 77.4202 70.9651 77.4C70.883 77.3797 70.8214 77.3797 70.7598 77.3594C70.3491 77.258 69.9589 77.0958 69.6304 76.8727C69.2813 76.6497 68.9939 76.3861 68.7474 76.0616C68.501 75.7575 68.2957 75.4127 68.152 75.0275C68.0082 74.6422 67.9261 74.2366 67.9261 73.8108C67.9261 73.3039 68.0288 72.8375 68.2341 72.3914C68.4394 71.9452 68.7064 71.56 69.0555 71.2153C69.4045 70.8908 69.7947 70.6272 70.267 70.4244C70.7392 70.2216 71.232 70.1203 71.7659 70.1H71.8481H77.3922H77.6181C78.1109 70.1203 78.5832 70.2419 79.0144 70.4244C79.4456 70.6069 79.8152 70.8705 80.1437 71.1747C80.4723 71.4789 80.7392 71.8236 80.9446 72.2291C81.1499 72.6347 81.2731 73.0605 81.3142 73.5066H79.7947C79.7536 73.243 79.6715 72.9997 79.5277 72.7564C79.4045 72.513 79.2403 72.3102 79.0349 72.1277C78.8296 71.9452 78.6037 71.8033 78.3573 71.7019C78.1109 71.6005 77.8234 71.5397 77.5359 71.5194H77.4743H77.3922H77.2895H71.9507H71.8481H71.7659C71.4579 71.5397 71.1499 71.6005 70.8624 71.7222C70.575 71.8439 70.3286 72.0061 70.1232 72.2089C69.9179 72.4116 69.7536 72.655 69.6304 72.9389C69.5072 73.2227 69.4456 73.5066 69.4456 73.8108V73.8716V73.9325V73.973V74.0136V74.0339V74.0744V74.0947L69.4661 74.115V74.1555V74.1758V74.2164C69.4867 74.2366 69.4867 74.2366 69.4867 74.2569V74.2975V74.3177L69.5072 74.338V74.3786V74.3989L69.5277 74.4191V74.4597C69.5483 74.48 69.5483 74.48 69.5483 74.5002C69.5483 74.5205 69.5483 74.5205 69.5483 74.5205L69.5688 74.5408C69.5893 74.5611 69.5893 74.5814 69.6099 74.6016C69.6099 74.6219 69.6304 74.6422 69.6509 74.6625C69.6509 74.6827 69.6509 74.703 69.6715 74.7233C69.6715 74.7436 69.6715 74.7436 69.692 74.7639C69.692 74.7841 69.692 74.7841 69.7125 74.7841L69.7331 74.8044L69.7536 74.845C69.7741 74.845 69.7741 74.8652 69.7741 74.8855H69.7947C69.7947 74.9058 69.7947 74.9261 69.8152 74.9261V74.9464L69.8357 74.9666L69.8563 74.9869V75.0072C69.8768 75.0275 69.8768 75.0275 69.8768 75.0477H69.8973C69.8973 75.068 69.8973 75.0883 69.9179 75.0883L69.959 75.1289V75.1491L69.9795 75.1897L70.0205 75.2302L70.1027 75.3113L70.1848 75.4127C70.2054 75.4127 70.2054 75.4127 70.2054 75.4127C70.2054 75.4127 70.2054 75.4127 70.2259 75.4127L70.267 75.4533L70.308 75.4938L70.3491 75.5141C70.3491 75.5344 70.3491 75.5344 70.3696 75.5344V75.5547C70.3902 75.5547 70.3902 75.5547 70.4107 75.575L70.4312 75.5952H70.4518C70.4518 75.6155 70.4518 75.6155 70.4723 75.6155L70.4928 75.6358L70.5134 75.6561C70.5339 75.6561 70.5339 75.6561 70.5544 75.6764C70.575 75.6764 70.575 75.6764 70.575 75.6764C70.575 75.6764 70.575 75.6764 70.5955 75.6764L70.8419 75.8183C70.8624 75.8183 70.9035 75.8386 70.924 75.8589C70.9446 75.8589 70.9651 75.8589 70.9856 75.8791H71.0267L71.0472 75.8994H71.0883C71.1088 75.9197 71.1088 75.9197 71.1294 75.9197H71.1499C71.1499 75.94 71.1704 75.94 71.191 75.94C71.2115 75.94 71.2115 75.94 71.232 75.9602H71.2526H71.2937L71.3142 75.9805H71.3553C71.3758 75.9805 71.3963 75.9805 71.4169 76.0008H71.4579C71.4785 76.0008 71.499 76.0008 71.5195 76.0211H71.5811H71.6222H71.6427C71.6633 76.0211 71.7454 76.0414 71.9097 76.0616C72.0739 76.0819 72.2793 76.1225 72.5462 76.163C72.7926 76.2036 73.1006 76.2441 73.4497 76.305C73.7988 76.3658 74.1479 76.4266 74.5175 76.4875C74.6612 76.5077 74.7433 76.528 74.8049 76.5483C75.462 76.6497 76.1396 76.7713 76.7967 76.9133C77.3922 76.9944 77.9466 77.1363 78.4189 77.2783Z" fill="white"/>
<path d="M101.355 84.5783H89.5688V69.9987H101.355V71.4181H91.0472V76.3861H101.355V77.8056H91.0472V83.1792H101.355V84.5783Z" fill="white"/>
<path d="M13.347 84.5783H11.848V77.8056H1.90965V84.5783H0.410675V69.9784H1.90965V76.3659H11.8686V69.9784H13.347V84.5783Z" stroke="white" stroke-width="2" stroke-miterlimit="10"/>
<path d="M29.8357 69.9987C30.9035 69.9987 31.8891 70.1812 32.8337 70.5664C33.7782 70.9517 34.5996 71.4789 35.2772 72.1278C35.9754 72.7767 36.5298 73.5473 36.9405 74.4395C37.3511 75.3114 37.5565 76.2645 37.5565 77.2784C37.5565 78.2922 37.3511 79.225 36.9405 80.1172C36.5298 80.9892 35.9754 81.7597 35.2772 82.4289C34.5791 83.0778 33.7577 83.605 32.8337 83.9903C31.8891 84.3756 30.9035 84.5581 29.8357 84.5581C28.768 84.5581 27.7823 84.3756 26.8378 83.9903C25.9138 83.605 25.0924 83.0778 24.3943 82.4289C23.6961 81.78 23.1417 81.0095 22.731 80.1172C22.3203 79.2453 22.115 78.2922 22.115 77.2784C22.115 76.2645 22.3203 75.3317 22.731 74.4395C23.1417 73.5675 23.6961 72.797 24.3943 72.1278C25.0924 71.4789 25.9138 70.9517 26.8378 70.5664C27.7823 70.2014 28.7885 69.9987 29.8357 69.9987ZM29.8357 83.2197C30.6982 83.2197 31.5195 83.0575 32.2793 82.7534C33.039 82.4492 33.7166 82.0233 34.2711 81.4758C34.846 80.9486 35.2772 80.32 35.6263 79.59C35.9548 78.86 36.1191 78.0895 36.1191 77.2784C36.1191 76.4673 35.9548 75.6967 35.6263 74.9667C35.2977 74.2367 34.846 73.6284 34.2711 73.0809C33.6961 72.5536 33.039 72.1278 32.2793 71.8034C31.5195 71.4992 30.6982 71.337 29.8357 71.337C28.9733 71.337 28.152 71.4992 27.3922 71.8034C26.6325 72.1075 25.9754 72.5334 25.4004 73.0809C24.8255 73.6081 24.3943 74.2367 24.0452 74.9667C23.6961 75.6967 23.5524 76.447 23.5524 77.2784C23.5524 78.0895 23.7166 78.86 24.0452 79.59C24.3737 80.32 24.8255 80.9486 25.4004 81.4758C25.9754 82.0031 26.6325 82.4289 27.3922 82.7534C28.152 83.0575 28.9733 83.2197 29.8357 83.2197Z" stroke="white" stroke-width="2" stroke-miterlimit="10"/>
<path d="M59.4456 69.9987V78.2922C59.4456 79.1439 59.2608 79.955 58.9117 80.7256C58.5626 81.4961 58.0904 82.145 57.4743 82.7128C56.8583 83.2806 56.1602 83.7267 55.3388 84.0511C54.5175 84.3756 53.655 84.5378 52.731 84.5378C51.7865 84.5378 50.924 84.3756 50.1027 84.0511C49.2813 83.7267 48.5832 83.2806 47.9672 82.7128C47.3511 82.145 46.8789 81.4759 46.5298 80.7256C46.1807 79.955 45.9959 79.1439 45.9959 78.2922V69.9987H47.4743V77.8259C47.4949 77.907 47.4949 77.9881 47.4949 78.0692C47.4949 78.1503 47.4949 78.2314 47.4949 78.3125C47.5154 78.9817 47.6591 79.6103 47.9261 80.2186C48.193 80.8067 48.5626 81.3136 49.0349 81.7597C49.5072 82.2059 50.0616 82.5506 50.6776 82.7939C51.3142 83.0575 51.9918 83.1792 52.7105 83.1792C53.4292 83.1792 54.1068 83.0575 54.7433 82.7939C55.3799 82.5303 55.9343 82.1856 56.4271 81.7597C56.9199 81.3339 57.269 80.8067 57.5565 80.2186C57.8234 79.6306 57.9671 79.002 57.9671 78.3125V77.9678V77.8259V69.9987H59.4456Z" stroke="white" stroke-width="2" stroke-miterlimit="10"/>
<path d="M78.4189 77.2783C78.8296 77.4 79.2197 77.5622 79.5483 77.7852C79.8973 78.0083 80.1848 78.2719 80.4312 78.5963C80.6776 78.9005 80.883 79.2452 81.0267 79.6305C81.1704 80.0158 81.2526 80.4011 81.2526 80.8269C81.2526 81.3338 81.1499 81.8205 80.9446 82.2666C80.7392 82.7127 80.4518 83.1183 80.1027 83.4427C79.7536 83.7874 79.3429 84.0511 78.8706 84.2336C78.3984 84.4161 77.885 84.5174 77.3511 84.5174H71.807H71.7249C71.191 84.4972 70.6982 84.3958 70.2464 84.2133C69.7741 84.0308 69.384 83.7672 69.0349 83.4224C68.6859 83.098 68.4189 82.7127 68.2136 82.2666C68.0082 81.8205 67.9056 81.3541 67.9056 80.8472H69.4251C69.4251 81.1513 69.4867 81.4352 69.6304 81.7191C69.7536 81.9827 69.9384 82.2261 70.1438 82.4288C70.3491 82.6316 70.616 82.7938 70.9035 82.9155C71.191 83.0372 71.499 83.098 71.8275 83.098H77.269V83.0777C77.2895 83.0777 77.3101 83.0777 77.3306 83.0777C77.3306 83.0777 77.3511 83.0777 77.3922 83.0777C77.7207 83.0777 78.0288 83.0169 78.3368 82.8952C78.6242 82.7736 78.8912 82.6113 79.0965 82.4086C79.3019 82.2058 79.4867 81.9422 79.6099 81.6786C79.7331 81.3947 79.8152 81.1108 79.8152 80.7863C79.8152 80.7661 79.8152 80.7458 79.7947 80.7255V80.6849V80.6444V80.6241V80.6038V80.5633V80.543V80.5227V80.4822C79.7741 80.4619 79.7741 80.4619 79.7741 80.4416C79.7741 80.3808 79.7741 80.3605 79.7536 80.3402V80.2997V80.2794C79.7536 80.2591 79.7536 80.2591 79.7331 80.2591C79.7331 80.2591 79.7331 80.2591 79.7331 80.2388V80.1983L79.7125 80.178V80.1375C79.7125 80.1172 79.7125 80.1172 79.692 80.0969C79.692 80.0766 79.692 80.0563 79.692 80.0563C79.692 80.0563 79.692 80.0361 79.692 80.0158C79.6715 80.0158 79.6715 80.0158 79.6715 79.9955C79.6715 79.9752 79.6715 79.9752 79.6509 79.9752C79.6509 79.9752 79.6509 79.955 79.6509 79.9347C79.6304 79.9347 79.6304 79.9347 79.6304 79.9144V79.8941C79.6099 79.8738 79.6099 79.8738 79.6099 79.8536C79.5893 79.8333 79.5893 79.8333 79.5893 79.813C79.5688 79.7927 79.5688 79.7927 79.5688 79.7725C79.5483 79.7522 79.5483 79.7319 79.5277 79.7116C79.5072 79.6913 79.5072 79.6711 79.4867 79.6508L79.4661 79.6305V79.6102L79.4251 79.5697L79.4045 79.5291L79.384 79.4886L79.3224 79.4277L79.2813 79.3872C79.2813 79.3669 79.2813 79.3669 79.2608 79.3466L79.2197 79.3061L79.1787 79.2655L79.1581 79.225C79.1376 79.225 79.1376 79.225 79.1376 79.225C79.1376 79.225 79.1376 79.225 79.1171 79.225C79.0965 79.2047 79.0965 79.2047 79.076 79.1844C79.076 79.1641 79.0554 79.1641 79.0144 79.1438L78.9939 79.1236L78.9528 79.083C78.9322 79.083 78.9322 79.083 78.9322 79.083C78.9322 79.083 78.9322 79.083 78.9117 79.083L78.8706 79.0425L78.8296 79.0222C78.809 79.0019 78.768 78.9816 78.7474 78.9613L78.7064 78.9411C78.7064 78.9208 78.6858 78.9208 78.6653 78.9208V78.8802L78.6242 78.86C78.6037 78.86 78.6037 78.86 78.6037 78.86C78.6037 78.86 78.6037 78.86 78.5832 78.86C78.5626 78.8397 78.5216 78.8194 78.501 78.8194C78.4394 78.7991 78.4189 78.7788 78.3984 78.7788C78.3778 78.7586 78.3778 78.7586 78.3573 78.7586C78.3368 78.7383 78.3368 78.7383 78.3162 78.7383C78.2957 78.718 78.2957 78.718 78.2752 78.718H78.2546C78.2341 78.6977 78.2341 78.6977 78.2136 78.6977C78.193 78.6775 78.1725 78.6775 78.152 78.6775C78.152 78.6775 78.1314 78.6775 78.0904 78.6572C78.0698 78.6572 78.0698 78.6572 78.0493 78.6572C78.0288 78.6572 78.0288 78.6572 78.0082 78.6572H77.9466V78.6369H77.9056C77.6591 78.5761 77.2485 78.4747 76.6941 78.3733C76.1396 78.2516 75.5236 78.1502 74.8665 78.0286C74.7639 78.0083 74.6407 77.988 74.538 77.9677C74.4353 77.9475 74.3121 77.9272 74.2095 77.9069C74.0247 77.8866 73.8193 77.8461 73.6345 77.8055C73.4497 77.765 73.2444 77.7244 73.0596 77.7041C73.039 77.7041 73.039 77.7041 73.0185 77.7041C73.0185 77.7041 72.998 77.7041 72.9774 77.7041C72.9158 77.7041 72.8542 77.6838 72.7721 77.6636H72.7105H72.6694C72.6489 77.6433 72.6284 77.6433 72.6078 77.6433C72.5873 77.6433 72.5667 77.6433 72.5462 77.6433C72.5257 77.6433 72.5051 77.6433 72.4846 77.6433C72.4641 77.6433 72.4435 77.6433 72.423 77.623H72.3409C72.1971 77.6027 72.0534 77.5825 71.9302 77.5622C71.807 77.5419 71.6838 77.5216 71.5811 77.5013C71.4579 77.4811 71.3347 77.4608 71.232 77.4405C71.1294 77.4202 71.0472 77.4202 70.9651 77.4C70.883 77.3797 70.8214 77.3797 70.7598 77.3594C70.3491 77.258 69.9589 77.0958 69.6304 76.8727C69.2813 76.6497 68.9939 76.3861 68.7474 76.0616C68.501 75.7575 68.2957 75.4127 68.152 75.0275C68.0082 74.6422 67.9261 74.2366 67.9261 73.8108C67.9261 73.3039 68.0288 72.8375 68.2341 72.3914C68.4394 71.9452 68.7064 71.56 69.0555 71.2153C69.4045 70.8908 69.7947 70.6272 70.267 70.4244C70.7392 70.2216 71.232 70.1203 71.7659 70.1H71.8481H77.3922H77.6181C78.1109 70.1203 78.5832 70.2419 79.0144 70.4244C79.4456 70.6069 79.8152 70.8705 80.1437 71.1747C80.4723 71.4789 80.7392 71.8236 80.9446 72.2291C81.1499 72.6347 81.2731 73.0605 81.3142 73.5066H79.7947C79.7536 73.243 79.6715 72.9997 79.5277 72.7564C79.4045 72.513 79.2403 72.3102 79.0349 72.1277C78.8296 71.9452 78.6037 71.8033 78.3573 71.7019C78.1109 71.6005 77.8234 71.5397 77.5359 71.5194H77.4743H77.3922H77.2895H71.9507H71.8481H71.7659C71.4579 71.5397 71.1499 71.6005 70.8624 71.7222C70.575 71.8439 70.3286 72.0061 70.1232 72.2089C69.9179 72.4116 69.7536 72.655 69.6304 72.9389C69.5072 73.2227 69.4456 73.5066 69.4456 73.8108V73.8716V73.9325V73.973V74.0136V74.0339V74.0744V74.0947L69.4661 74.115V74.1555V74.1758V74.2164C69.4867 74.2366 69.4867 74.2366 69.4867 74.2569V74.2975V74.3177L69.5072 74.338V74.3786V74.3989L69.5277 74.4191V74.4597C69.5483 74.48 69.5483 74.48 69.5483 74.5002C69.5483 74.5205 69.5483 74.5205 69.5483 74.5205L69.5688 74.5408C69.5893 74.5611 69.5893 74.5814 69.6099 74.6016C69.6099 74.6219 69.6304 74.6422 69.6509 74.6625C69.6509 74.6827 69.6509 74.703 69.6715 74.7233C69.6715 74.7436 69.6715 74.7436 69.692 74.7639C69.692 74.7841 69.692 74.7841 69.7125 74.7841L69.7331 74.8044L69.7536 74.845C69.7741 74.845 69.7741 74.8652 69.7741 74.8855H69.7947C69.7947 74.9058 69.7947 74.9261 69.8152 74.9261V74.9464L69.8357 74.9666L69.8563 74.9869V75.0072C69.8768 75.0275 69.8768 75.0275 69.8768 75.0477H69.8973C69.8973 75.068 69.8973 75.0883 69.9179 75.0883L69.959 75.1289V75.1491L69.9795 75.1897L70.0205 75.2302L70.1027 75.3113L70.1848 75.4127C70.2054 75.4127 70.2054 75.4127 70.2054 75.4127C70.2054 75.4127 70.2054 75.4127 70.2259 75.4127L70.267 75.4533L70.308 75.4938L70.3491 75.5141C70.3491 75.5344 70.3491 75.5344 70.3696 75.5344V75.5547C70.3902 75.5547 70.3902 75.5547 70.4107 75.575L70.4312 75.5952H70.4518C70.4518 75.6155 70.4518 75.6155 70.4723 75.6155L70.4928 75.6358L70.5134 75.6561C70.5339 75.6561 70.5339 75.6561 70.5544 75.6764C70.575 75.6764 70.575 75.6764 70.575 75.6764C70.575 75.6764 70.575 75.6764 70.5955 75.6764L70.8419 75.8183C70.8624 75.8183 70.9035 75.8386 70.924 75.8589C70.9446 75.8589 70.9651 75.8589 70.9856 75.8791H71.0267L71.0472 75.8994H71.0883C71.1088 75.9197 71.1088 75.9197 71.1294 75.9197H71.1499C71.1499 75.94 71.1704 75.94 71.191 75.94C71.2115 75.94 71.2115 75.94 71.232 75.9602H71.2526H71.2937L71.3142 75.9805H71.3553C71.3758 75.9805 71.3963 75.9805 71.4169 76.0008H71.4579C71.4785 76.0008 71.499 76.0008 71.5195 76.0211H71.5811H71.6222H71.6427C71.6633 76.0211 71.7454 76.0414 71.9097 76.0616C72.0739 76.0819 72.2793 76.1225 72.5462 76.163C72.7926 76.2036 73.1006 76.2441 73.4497 76.305C73.7988 76.3658 74.1479 76.4266 74.5175 76.4875C74.6612 76.5077 74.7433 76.528 74.8049 76.5483C75.462 76.6497 76.1396 76.7713 76.7967 76.9133C77.3922 76.9944 77.9466 77.1363 78.4189 77.2783Z" stroke="white" stroke-width="2" stroke-miterlimit="10"/>
<path d="M101.355 84.5783H89.5688V69.9987H101.355V71.4181H91.0472V76.3861H101.355V77.8056H91.0472V83.1792H101.355V84.5783Z" stroke="white" stroke-width="2" stroke-miterlimit="10"/>
<path d="M100.103 64.9292H1.12936V65.9431H100.103V64.9292Z" fill="white"/>
</g>
<defs>
<clipPath id="clip0_2_53">
<rect width="110" height="92" fill="white"/>
</clipPath>
</defs>
</svg>
