<svg width="26" height="26" viewBox="0 0 26 26" fill="none" xmlns="http://www.w3.org/2000/svg">
<path d="M24.9167 11.9392H1.08333C0.485331 11.9392 0 12.4245 0 13.0225C0 13.6205 0.485331 14.1058 1.08333 14.1058H24.9167C25.5147 14.1058 26 13.6205 26 13.0225C26 12.4245 25.5147 11.9392 24.9167 11.9392Z" fill="black"/>
<path d="M24.9167 20.2448H1.08333C0.485331 20.2448 0 20.7302 0 21.3282C0 21.9262 0.485331 22.4115 1.08333 22.4115H24.9167C25.5147 22.4115 26 21.9262 26 21.3282C26 20.7302 25.5147 20.2448 24.9167 20.2448Z" fill="black"/>
<path d="M24.9167 3.63375H1.08333C0.485331 3.63375 0 4.11908 0 4.71708C0 5.31508 0.485331 5.80042 1.08333 5.80042H24.9167C25.5147 5.80042 26 5.31508 26 4.71708C26 4.11908 25.5147 3.63375 24.9167 3.63375Z" fill="black"/>
</svg>
