<svg width="27" height="26" viewBox="0 0 27 26" fill="none" xmlns="http://www.w3.org/2000/svg">
<g clip-path="url(#clip0_12_350)">
<path d="M13.4674 19.275C13.3606 19.2752 13.2549 19.2542 13.1564 19.2134C13.0578 19.1725 12.9682 19.1126 12.8929 19.037L4.22624 10.3703C4.07388 10.2179 3.98828 10.0113 3.98828 9.79582C3.98828 9.58036 4.07387 9.37371 4.22623 9.22135C4.37858 9.069 4.58522 8.9834 4.80069 8.9834C5.01616 8.9834 5.2228 9.06899 5.37516 9.22134L13.4674 17.3136L21.5596 9.22134C21.712 9.06948 21.9185 8.98431 22.1337 8.98452C22.3489 8.98473 22.5552 9.07031 22.7074 9.22247C22.8595 9.37464 22.9451 9.58095 22.9453 9.79614C22.9455 10.0113 22.8604 10.2178 22.7085 10.3703L14.0418 19.0369C13.9665 19.1125 13.877 19.1725 13.7784 19.2134C13.6798 19.2542 13.5741 19.2752 13.4674 19.275Z" fill="#067A46"/>
</g>
<defs>
<clipPath id="clip0_12_350">
<rect width="26" height="26" fill="white" transform="translate(0.601562)"/>
</clipPath>
</defs>
</svg>
